<svg id="Layer_1" data-name="Layer 1" xmlns="http://www.w3.org/2000/svg" width="90" height="90" viewBox="0 0 90 90">
  <defs>
    <style>
      .cls-1 {
        fill: #1bada6;
      }

      .cls-2 {
        fill: #14827d;
      }
    </style>
  </defs>
  <g>
    <path class="cls-1" d="M47.38,64.87H51c-2.63,6.37-9.63,12.62-24.25,12.62-19.62,0-25-9.88-26.62-17.13-.75-3.12,1.75-2.87,1.75-2.87H14.64s1.75-.5,2.87,1.87A8.1,8.1,0,0,0,18.76,61C20.39,63,23,63.62,26,63.62c5,0,8.12-1.76,8.12-6.75,0-5.38-4.12-6.38-8.12-6.38H23s-.12.13-.37,0a1.52,1.52,0,0,1-1.38-.75c-.12-.25-.12-.37-.25-.5a2.76,2.76,0,0,1-.12-.75v-7a2.81,2.81,0,0,1,.12-.75l.25-.5a1.68,1.68,0,0,1,1.38-.75H26c4,0,8.12-1,8.12-6.37,0-5-3.12-6.75-8.12-6.75-3,0-5.62.63-7.25,2.63a8.32,8.32,0,0,0-1.25,1.62c-1.12,2.37-2.87,1.87-2.87,1.87H1.89s-2.5.25-1.75-2.87c1.63-7.25,7-17.12,26.62-17.12,20,0,25.62,11.75,25.62,19.12,0,6.13-2,9.5-4.25,11.37h-.75a7.94,7.94,0,0,0-5.75,2.38A7.83,7.83,0,0,0,39.38,51v5.88a8.48,8.48,0,0,0,2.25,5.74A8.1,8.1,0,0,0,47.38,64.87ZM90,57.12a3,3,0,0,1-.75,2,3.07,3.07,0,0,1-2,.75H73.13V74a2.48,2.48,0,0,1-.88,2,2.63,2.63,0,0,1-2,.75H64.38A2.78,2.78,0,0,1,61.5,74V59.61H47.38a2.84,2.84,0,0,1-2-.75,2.61,2.61,0,0,1-.75-2V51a3.07,3.07,0,0,1,.75-2,2.84,2.84,0,0,1,2-.75H61.63L61.5,34.12a2.63,2.63,0,0,1,.75-2,3.07,3.07,0,0,1,2-.75h6A2.58,2.58,0,0,1,73,34.12V48.24H87.25a3.24,3.24,0,0,1,2,.88,2.63,2.63,0,0,1,.75,2Z"/>
    <g>
      <path class="cls-2" d="M23.69,47.86H20.84v.65a2.76,2.76,0,0,0,.12.75c.13.13.13.25.25.5a1.52,1.52,0,0,0,1.38.75c.25.12.37,0,.37,0h3a11.34,11.34,0,0,1,5.37,1.08C30.16,48.55,26.9,47.86,23.69,47.86Z"/>
      <path class="cls-2" d="M70.68,48.25H73V34a2.84,2.84,0,0,0-.75-2,2.68,2.68,0,0,0-1.52-.57Z"/>
      <path class="cls-2" d="M61.45,57H45.06c-.18,0-.3-.15-.48-.18v.09a2.61,2.61,0,0,0,.75,2,2.85,2.85,0,0,0,2,.76H61.45Z"/>
      <path class="cls-2" d="M50.14,28.94v.22c0,5.6-3.92,10.24-9,12.47a5.69,5.69,0,0,0-1.7,1.06,7.83,7.83,0,0,0-2.25,5.62v6.3a8.49,8.49,0,0,0,2.25,5.75,8.07,8.07,0,0,0,1,.64,8.21,8.21,0,0,1-1-3.74V51a7.82,7.82,0,0,1,2.24-5.62A8,8,0,0,1,47.41,43h.75c2.25-1.88,4.25-5.25,4.25-11.38A17.63,17.63,0,0,0,46.8,19,17.43,17.43,0,0,1,50.14,28.94Z"/>
      <path class="cls-2" d="M89.2,49.13a3.6,3.6,0,0,0-1.57-.77s.05.06.05.12v6a2.58,2.58,0,0,1-2.75,2.75H70.81V71.35a2.48,2.48,0,0,1-.88,2,2.63,2.63,0,0,1-2,.75H62.06c-.27,0-.38-.18-.61-.23V74a2.78,2.78,0,0,0,2.88,2.75H70.2a2.63,2.63,0,0,0,2-.75,2.48,2.48,0,0,0,.88-2V59.88H87.2A2.58,2.58,0,0,0,90,57.13v-6A2.63,2.63,0,0,0,89.2,49.13Z"/>
      <path class="cls-2" d="M23.69,23.68c-3,0-5.62.63-7.25,2.63a8.32,8.32,0,0,0-1.25,1.62c-1.12,2.37-2.87,1.87-2.87,1.87H.08c-.53,2.83,1.76,2.65,1.76,2.65H14.59s1.75.5,2.87-1.87A8.32,8.32,0,0,1,18.71,29C20.34,27,23,26.33,26,26.33a10.34,10.34,0,0,1,5.34,1.23C30.25,24.77,27.56,23.68,23.69,23.68Z"/>
      <path class="cls-2" d="M47.29,64.87c-3.36,5.35-10.27,10-22.85,10-10.71,0-17.08-3-21-6.82C7,73.1,13.64,77.5,26.71,77.5c14.62,0,21.62-6.25,24.25-12.62H47.29Z"/>
    </g>
  </g>
</svg>
