<svg id="Layer_1" data-name="Layer 1" xmlns="http://www.w3.org/2000/svg" width="90" height="90" viewBox="0 0 90 90">
  <defs>
    <style>
      .cls-1 {
        fill: #b54040;
      }

      .cls-2 {
        fill: #be922e;
      }

      .cls-3 {
        fill: #3d85b9;
      }

      .cls-4 {
        fill: #548e60;
      }

      .cls-5 {
        opacity: 0.2;
      }

      .cls-6 {
        fill: #fff;
      }
    </style>
  </defs>
  <g>
    <g>
      <g>
        <path class="cls-1" d="M40.08,90a2.31,2.31,0,0,1-1.75-.72,2.35,2.35,0,0,1-.69-1.71V73H27.82c-.71,0-1.13-.17-1.27-.52s0-.79.54-1.27L43.2,55A2.6,2.6,0,0,1,45,54.3a2.37,2.37,0,0,1,1.77.73L62.88,71.22c.47.48.64.91.51,1.27s-.52.52-1.18.52H52.39V87.57a2.29,2.29,0,0,1-.72,1.71,2.39,2.39,0,0,1-1.78.72Z"/>
        <path class="cls-2" d="M45,35.7A2.41,2.41,0,0,1,43.25,35L27.12,18.78c-.47-.48-.64-.91-.51-1.27s.52-.52,1.18-.52h9.82V2.43A2.29,2.29,0,0,1,38.33.72,2.39,2.39,0,0,1,40.11,0h9.81a2.31,2.31,0,0,1,1.75.72,2.35,2.35,0,0,1,.69,1.71V17h9.82c.71,0,1.13.17,1.27.52s0,.79-.54,1.27L46.8,35A2.6,2.6,0,0,1,45,35.7Z"/>
      </g>
      <g>
        <path class="cls-3" d="M0,40.08a2.31,2.31,0,0,1,.72-1.75,2.35,2.35,0,0,1,1.71-.69H17V27.82c0-.71.17-1.13.52-1.27s.79,0,1.27.54L35,43.2A2.6,2.6,0,0,1,35.7,45,2.37,2.37,0,0,1,35,46.75L18.78,62.88c-.48.47-.91.64-1.27.51S17,62.87,17,62.21V52.39H2.43a2.29,2.29,0,0,1-1.71-.72A2.39,2.39,0,0,1,0,49.89Z"/>
        <path class="cls-4" d="M54.3,45A2.41,2.41,0,0,1,55,43.25L71.22,27.12c.48-.47.91-.64,1.27-.51s.52.52.52,1.18v9.82H87.57a2.29,2.29,0,0,1,1.71.72A2.39,2.39,0,0,1,90,40.11v9.81a2.31,2.31,0,0,1-.72,1.75,2.35,2.35,0,0,1-1.71.69H73v9.82c0,.71-.17,1.13-.52,1.27s-.79,0-1.27-.54L55,46.8A2.6,2.6,0,0,1,54.3,45Z"/>
      </g>
    </g>
    <g class="cls-5">
      <g>
        <path class="cls-6" d="M39.69,79.07a33.72,33.72,0,0,1,12.16-16L45.3,56.48c-.46-.13-.56-.09-.69,0L30.24,71h9.45Z"/>
        <g>
          <path class="cls-6" d="M50.31,8.11V2.43l-.39-.38H40.11l-.46.38V18.49A33.83,33.83,0,0,1,50.31,8.11Z"/>
          <path class="cls-6" d="M39.33,19h-9l6.07,6.09A33.37,33.37,0,0,1,39.33,19Z"/>
        </g>
      </g>
      <g>
        <path class="cls-6" d="M8.79,50.34A33.64,33.64,0,0,1,26.91,38.06l-7.86-7.83v9.45H2.43l-.38.39v9.81l.38.46Z"/>
        <path class="cls-6" d="M62.21,51.06a33.62,33.62,0,0,1,18.87-11.4H71V30.28L56.47,44.7l-.12.28a.5.5,0,0,0,.17.41Z"/>
      </g>
    </g>
  </g>
</svg>
