<svg width="90" height="90" fill="none" xmlns="http://www.w3.org/2000/svg"><path d="M29.652 80.702c.645.552 2.736-1.185 3.614-2.038 2.022-1.985-1.443-7.507-2.824-9.105 0 0-5.225-5.985-9.118-9.28-1.559-1.425-6.99-5.016-9.013-3.031-.878.861-2.655 2.92-2.11 3.58L29.66 80.702h-.008zM14.095 82.347s-.596 3.312-1.887 4.572a6.088 6.088 0 0 1-8.64-.097c-2.363-2.424-2.322-6.304.093-8.666 1.283-1.26 4.598-1.784 4.598-1.784l5.827 5.975h.008z" fill="#666564"/><path d="m23.587 74.506-9.583 7.772-5.827-5.975 7.92-9.407 7.49 7.61z" fill="#666564"/><path d="M23.586 74.507s-2.722-2.512-10.824-3.65l3.334-3.961 7.49 7.611z" fill="#4B4847"/><path d="m39.59 62.773 40.746-39.075c5.802-5.694 5.3-15.52 5.3-15.52s-9.782-.718-15.584 4.977L29.269 52.267l4.994 5.417 5.328 5.089z" fill="#BEBDB9"/><path d="M70.053 13.155c5.802-5.695 15.585-4.978 15.585-4.978L72.992 20.364l-1.201-1.767a4.254 4.254 0 0 0-3.888-1.849l-1.757.154 3.907-3.747z" fill="#E7E6E5"/><path d="M60.35 80.702c-.646.552-2.737-1.185-3.615-2.038-2.022-1.985 1.443-7.507 2.824-9.105 0 0 5.225-5.985 9.118-9.28 1.559-1.425 6.99-5.016 9.013-3.031.878.861 2.655 2.92 2.11 3.58L60.341 80.702h.008zM75.907 82.347s.595 3.312 1.886 4.572a6.089 6.089 0 0 0 8.64-.097c2.363-2.424 2.322-6.304-.093-8.666-1.283-1.26-4.597-1.784-4.597-1.784l-5.828 5.975h-.008z" fill="#666564"/><path d="m66.414 74.506 9.583 7.772 5.827-5.975-7.92-9.407-7.49 7.61z" fill="#666564"/><path d="M66.415 74.507s2.722-2.512 10.824-3.65l-3.335-3.961-7.49 7.611z" fill="#4B4847"/><path d="M50.41 62.773 9.665 23.698c-5.802-5.694-5.3-15.52-5.3-15.52s9.782-.718 15.584 4.977l40.783 39.112-4.993 5.417-5.329 5.089z" fill="#BEBDB9"/><path d="M19.948 13.155C14.145 7.46 4.363 8.177 4.363 8.177l12.646 12.187 1.2-1.767a4.254 4.254 0 0 1 3.889-1.849l1.757.154-3.907-3.747z" fill="#E7E6E5"/><path d="M46.497 5.228a2.377 2.377 0 0 0-2.984-.001c-8.038 6.479-15.95 10.751-26.206 11.307-1.273.07-2.307 1.095-2.307 2.37v24.531c0 18.226 15.006 31.315 28.817 39.84.729.45 1.648.45 2.376-.003 13.793-8.56 28.806-21.596 28.806-39.837v-24.47c0-1.299-1.072-2.333-2.369-2.38-10.211-.37-18.165-4.908-26.133-11.357z" fill="#81B64C"/><path d="M44.998 4.701c.511-.001 1.021.163 1.448.49 4.22 3.418 8.436 6.3 12.983 8.314l.132.06c.2.087.403.173.605.257l.31.13a38.08 38.08 0 0 0 1.398.54l.37.13c.165.058.33.116.495.17.114.04.229.075.344.112.605.196 1.217.376 1.837.54.167.044.334.09.502.131a33.89 33.89 0 0 0 1.665.372l.065.013c.556.108 1.12.203 1.69.285l.106.016c.272.038.546.072.822.104.03.004.06.008.09.01.29.034.581.065.875.09l.018.002c.302.026.605.05.91.07l.021.001c.28.017.562.03.846.041l.1.006c1.291.047 2.358 1.072 2.369 2.361v24.488c0 .871-.035 1.73-.102 2.578l-.019.207a32.46 32.46 0 0 1-.157 1.47 32.468 32.468 0 0 1-.605 3.286 34.249 34.249 0 0 1-1.85 5.58 36.732 36.732 0 0 1-1.413 2.935c-5.441 10.175-15.407 18.048-24.786 23.854-.334.178-.701.268-1.069.267V4.701z" fill="#5D9948"/><path d="M45 22.646c4.09 0 10.698 2.603 10.699 8.198 0 5.729-5.728 6.72-5.758 10.026-.024 2.684 2.835 4.72 5.228 4.8H74.92c-1.163 17.076-15.504 29.396-28.727 37.602a2.256 2.256 0 0 1-2.376.003c-13.24-8.172-27.575-20.54-28.738-37.605h19.539c2.493 0 5.788-1.89 5.724-4.8-.07-3.237-6.042-4.27-6.042-10.026 0-5.595 6.609-8.198 10.7-8.198z" fill="#45753C"/><path d="M45 83.611c-.41 0-.82-.112-1.183-.336-13.24-8.172-27.575-20.54-28.738-37.605h19.539c2.493 0 5.788-1.89 5.724-4.8-.03-1.38-1.132-2.36-2.386-3.474-1.69-1.502-3.656-3.25-3.656-6.552 0-5.567 6.543-8.17 10.638-8.197h.063v60.964z" fill="#5D9948"/><path opacity=".5" d="M74.878 46.225c-1.432 16.788-15.606 28.93-28.685 37.047a2.256 2.256 0 0 1-.65.272c11.422-9.594 25.181-19.822 29.335-37.319z" fill="#81B64C"/><path d="M44.294 4.81C36.5 13.58 26.59 17.672 19.368 18.338c-1.171.108-2.16.983-2.29 2.152L15 39.257V18.903c0-1.274 1.036-2.3 2.308-2.369 10.257-.556 18.169-4.828 26.206-11.307.238-.192.503-.33.781-.417z" fill="#B2E068"/></svg>