<svg width="90" height="90" fill="none" xmlns="http://www.w3.org/2000/svg"><path d="M82 15H8a8 8 0 0 0-8 8v54a8 8 0 0 0 8 8h74a8 8 0 0 0 8-8V23a8 8 0 0 0-8-8z" fill="#543426"/><path d="M82 11H8a8 8 0 0 0-8 8v54a8 8 0 0 0 8 8h74a8 8 0 0 0 8-8V19a8 8 0 0 0-8-8z" fill="#9D6C3E"/><path fill-rule="evenodd" clip-rule="evenodd" d="M0 19v12.588l.672-11.777a8 8 0 0 1 7.405-7.524L25.72 11H8a8 8 0 0 0-8 8zm90 54V60.412l-.672 11.777a8 8 0 0 1-7.405 7.524L64.28 81H82a8 8 0 0 0 8-8z" fill="#CA9350"/><path d="M86 73a4 4 0 0 1-4 4H8a4 4 0 0 1-4-4V15a4 4 0 0 1 4-4h74a4 4 0 0 1 4 4v58z" fill="#6A4632"/><path d="M86 68a5 5 0 0 1-5 5H9a5 5 0 0 1-5-5V12a5 5 0 0 1 5-5h72a5 5 0 0 1 5 5v56z" fill="#BEBDB9"/><path d="M81 66.762a4 4 0 0 1-3.722 3.99L45 73l-32.278-2.248A4 4 0 0 1 9 66.762V11a4 4 0 0 1 4-4h64a4 4 0 0 1 4 4v55.762z" fill="#8B8987"/><path d="m45 73-32.866-5.78A5 5 0 0 1 8 62.296V2.386A2.386 2.386 0 0 1 10.386 0c1.074 0 2.145.097 3.202.289L45 6v67z" fill="#E7E6E5"/><path d="m45 73 32.866-5.78A5 5 0 0 0 82 62.296V2.386A2.386 2.386 0 0 0 79.614 0c-1.074 0-2.145.097-3.202.289L45 6v67z" fill="#F8F8F8"/><path d="M31.26 13c.388.059.787.679.895 1.313l.31 2.078c.315 1.1.837 1.89 1.643 2.922.805 1.033 1.012 1.923 1.193 2.573.637 2.31.686 3.49 1.791 5.85l2.475 5.122c.637 1.169.553 2.627-.13 3.309-.906.91-3.503 1.392-3.73 1.054l.008-.004c-1.001-1.47-1.051-3.504-3.177-3.84-1.638-.259-3.092-2.515-3.91-3.805l-.809-1.4c-.314.47-1.185 1.988-.802 3.883.12.584.304 1.114.541 1.631.434.935 1.052 1.792 1.78 2.703 1.562 1.963 4.298 5.36 4.593 9.493l.053 1.35c4.765 1.35 4.793 5.962 4.793 6.061V56L15 52.407v-2.705s-.021-4.267 4.138-4.596c-.072-.902-.177-1.486-.177-1.486-.265-1.793-1.754-7.933-1.754-11.142 0-12.08 5.978-16.485 11.322-16.17L31.261 13z" fill="#8B8987"/><path d="M61 25.77 53 27v-9.77L61 16v9.77zM61 40.76 53 42v-9.77L61 31v9.76zM61 55.658 53 57V46.352L61 45v10.658zM74 53.658 66 55V44.352L74 43v10.658z" fill="#BEBDB9"/></svg>