<svg width="90" height="90" fill="none" xmlns="http://www.w3.org/2000/svg"><path d="M82 15H8a8 8 0 0 0-8 8v54a8 8 0 0 0 8 8h74a8 8 0 0 0 8-8V23a8 8 0 0 0-8-8z" fill="#543426"/><path d="M82 11H8a8 8 0 0 0-8 8v54a8 8 0 0 0 8 8h74a8 8 0 0 0 8-8V19a8 8 0 0 0-8-8z" fill="#9D6C3E"/><path fill-rule="evenodd" clip-rule="evenodd" d="M0 19v12.588l.672-11.777a8 8 0 0 1 7.405-7.524L25.72 11H8a8 8 0 0 0-8 8zm90 54V60.412l-.672 11.777a8 8 0 0 1-7.405 7.524L64.28 81H82a8 8 0 0 0 8-8z" fill="#CA9350"/><path d="M86 73a4 4 0 0 1-4 4H8a4 4 0 0 1-4-4V15a4 4 0 0 1 4-4h74a4 4 0 0 1 4 4v58z" fill="#6A4632"/><path d="M86 68a5 5 0 0 1-5 5H9a5 5 0 0 1-5-5V12a5 5 0 0 1 5-5h72a5 5 0 0 1 5 5v56z" fill="#BEBDB9"/><path d="M81 66.762a4 4 0 0 1-3.722 3.99L45 73l-32.278-2.248A4 4 0 0 1 9 66.762V11a4 4 0 0 1 4-4h64a4 4 0 0 1 4 4v55.762z" fill="#8B8987"/><path d="m45 73-32.866-5.78A5 5 0 0 1 8 62.296V2.386A2.386 2.386 0 0 1 10.386 0c1.074 0 2.145.097 3.202.289L45 6v67z" fill="#E7E6E5"/><path d="m45 73 32.866-5.78A5 5 0 0 0 82 62.296V2.386A2.386 2.386 0 0 0 79.614 0c-1.074 0-2.145.097-3.202.289L45 6v67z" fill="#F8F8F8"/><path d="m37 32.95-21-3.528V8l21 3.528V32.95z" fill="#10777C"/><path d="M26.5 20.475 16 18.71V8l10.5 1.764v10.71zM37 32.931l-10.5-1.745V20.475L37 22.22v10.711z" fill="#26C2A3"/><path d="m74 29.376-21 3.8v-7.138l21-3.787v7.125zM74 43.627 53 47.45v-7.137L74 36.5v7.126zM74 57.878l-21 3.847v-7.137l21-3.836v7.126zM74 15.125l-21 3.776v-7.138L74 8v7.125z" fill="#DAD8D6"/><path d="M51.99 83.17 59 89.875 58.979 3.1 45 5.5v84.375l7-6.715-.01.01z" fill="#26C2A3"/><path d="M51.99 83.212 59 90l-.021-17H45v17l7-6.798-.01.01z" fill="#10777C"/><path opacity=".5" d="M59 69H45v8h14v-8z" fill="#109888"/><path d="m16 43.627 21 3.823v-7.137L16 36.5v7.126zM16 57.878l21 3.847v-7.137l-21-3.836v7.126z" fill="#BEBDB9"/><path fill-rule="evenodd" clip-rule="evenodd" d="m61 60.26-2 .366v-7.134l2-.365v7.132zm0-14.266-2 .364v-7.134l2-.363v7.133zm0-14.266-2 .362v-7.134l2-.36v7.132zm0-14.266-2 .36v-7.134l2-.358v7.132z" fill="#8B8987"/></svg>