<svg id="Layer_1" data-name="Layer 1" xmlns="http://www.w3.org/2000/svg" width="90" height="90" viewBox="0 0 90 90">
  <defs>
    <style>
      .cls-1 {
        fill: #6c9d41;
      }

      .cls-2 {
        fill: #fff;
      }
    </style>
  </defs>
  <g>
    <g>
      <path class="cls-1" d="M59.48,42.25c1.62,1.72,4.91,5.18,9,5.28,2,0,2.53.71,3.45,2.23a24.78,24.78,0,0,0,1.72,2.13,2.17,2.17,0,0,0,1.62.6,17.75,17.75,0,0,0,8.1-2.83,5.31,5.31,0,0,0,.51-7.19l-5-6.89a17,17,0,0,1-2.43-5.16,19.9,19.9,0,0,0-.91-2.64l-.1-.2a9.13,9.13,0,0,0-2.73-3.95c-1.42-1.21-2.33-2-2.74-3.14l-.61-2.83a3.83,3.83,0,0,0-3.44-3H65.2l-.5.51-5,5A25.87,25.87,0,0,0,45,26.36a25.87,25.87,0,0,0-14.73-6.27l-5-5-.5-.51h-.71a3.83,3.83,0,0,0-3.44,3L20,20.49c-.41,1.12-1.32,1.93-2.74,3.14a9.13,9.13,0,0,0-2.73,3.95l-.1.2a19.9,19.9,0,0,0-.91,2.64,17,17,0,0,1-2.43,5.16l-5,6.89a5.31,5.31,0,0,0,.51,7.19,17.75,17.75,0,0,0,8.1,2.83,2.17,2.17,0,0,0,1.62-.6,24.78,24.78,0,0,0,1.72-2.13c.92-1.52,1.42-2.23,3.45-2.23,4.05-.1,7.34-3.56,9-5.28l.15-.19a4.27,4.27,0,0,1,.3,2.53,7.43,7.43,0,0,1-.91,1.83A15.24,15.24,0,0,1,27,49.55l-.15.11c-3.24,2.53-8.4,6.78-9.52,12.76a7.36,7.36,0,0,0-4.86,4c-.91,1.82-.91,4-.91,6.58,0,.2.1.41.1.61v1.72H78.37V73.66c0-.2.1-.41.1-.61,0-2.53,0-4.76-.91-6.58a7.36,7.36,0,0,0-4.86-4c-1.12-6-6.28-10.23-9.52-12.76L63,49.55a15.24,15.24,0,0,1-3.09-3.13A7.43,7.43,0,0,1,59,44.59a4.27,4.27,0,0,1,.3-2.53Z"/>
      <path class="cls-2" d="M81.41,44.32l-5-7a21.43,21.43,0,0,1-2.93-6c-.21-.7-.51-1.51-.81-2.43a.35.35,0,0,1-.1-.2A5.25,5.25,0,0,0,70.67,26,10.77,10.77,0,0,1,67,21.53v-.1l-.71-3c0-.2-.1-.3-.1-.4l-5.17,5.16h-.51A24.5,24.5,0,0,0,53,25a24.23,24.23,0,0,0-6.57,4.27V72.37H75.33a12.76,12.76,0,0,0-.51-4.66,4,4,0,0,0-2.73-2.23l-1-.3a7.58,7.58,0,0,0-.82-.21,18,18,0,0,0-.8-3.24c-1.52-4.25-5.68-7.59-8.21-9.72a17.32,17.32,0,0,1-3.84-3.85,7.59,7.59,0,0,1-1.22-2.63,6,6,0,0,1,.3-4.56A7.06,7.06,0,0,1,58,38.44l1-1.31,2.63,3c1.31,1.42,4,4.26,6.78,4.26,3.75.1,5,2,6.08,3.64a6.63,6.63,0,0,0,.91,1.42c1.32-.2,4.66-1.11,5.87-2.13A2.18,2.18,0,0,0,81.41,44.32Z"/>
    </g>
    <path class="cls-1" d="M46.38,64.56h6.51v4.26c0,.31.08.49.24.55s.36,0,.58-.24l7.44-7.41a1.11,1.11,0,0,0,.34-.82,1.15,1.15,0,0,0-.34-.81l-7.43-7.41c-.23-.23-.42-.31-.59-.25s-.24.26-.24.59v4.26H46.38Z"/>
    <path class="cls-2" d="M46.38,64.56H39.87v4.26c0,.31-.08.49-.24.55s-.36,0-.58-.24l-7.44-7.41a1.11,1.11,0,0,1-.34-.82,1.15,1.15,0,0,1,.34-.81L39,52.68c.23-.23.43-.31.59-.25s.24.26.24.59v4.26h6.51Z"/>
  </g>
</svg>
