<svg width="90" height="90" fill="none" xmlns="http://www.w3.org/2000/svg"><path d="M5 45h80V13a8 8 0 0 0-8-8H13a8 8 0 0 0-8 8v32z" fill="#5D9948"/><path d="M5 35V13a8 8 0 0 1 8-8h42l-39.42.986c-4.936.123-9.074 3.831-9.341 8.76C5.878 21.407 5.997 27.21 5 35z" fill="#81B64C"/><path d="M24 5h8l1.014 6.082a5.083 5.083 0 1 1-10.028 0L24 5zM58 5h8l1.014 6.082a5.083 5.083 0 1 1-10.028 0L58 5z" fill="#45753C"/><path d="M32 4a4 4 0 0 0-8 0v5a4 4 0 0 0 8 0V4zM66 4a4 4 0 0 0-8 0v5a4 4 0 0 0 8 0V4z" fill="#81B64C"/><path d="M5 51h80v26a8 8 0 0 1-8 8H13a8 8 0 0 1-8-8V51z" fill="#BEBDB9"/><path d="M5 75h80v3H5v-3z" fill="#8B8987"/><path d="M5 45h80l4.92 24.25c.053.261.08.527.08.795V71a4 4 0 0 1-4 4H4a4 4 0 0 1-4-4v-.955a4 4 0 0 1 .08-.796L5 45z" fill="#81B64C"/><path d="M72.41 45.98c0-3.53-2.91-6.38-6.49-6.38-1.23 0-2.38.34-3.35.92-.37.22-.83.23-1.2.02-.37-.21-.61-.6-.61-1.02v-7.6c0-1.17-1-2.11-2.19-2.11h-9.48c-.42 0-.81-.22-1.02-.57-.21-.36-.22-.8-.02-1.16.52-.92.81-1.97.81-3.1 0-3.53-2.91-6.39-6.49-6.39s-6.49 2.86-6.49 6.39c0 1.12.29 2.18.81 3.1.2.36.2.8-.02 1.16-.21.36-.6.57-1.02.57h-9.48c-1.19 0-2.18.94-2.18 2.11v7.42c0 .41.22.79.58 1 .36.21.81.22 1.17.03.92-.49 1.97-.76 3.08-.76 3.59 0 6.49 2.86 6.49 6.38" fill="#fff"/><path d="M72.28 45c.08.41.13.827.13 1.264 0 3.509-2.91 6.354-6.49 6.354-1.23 0-2.38-.336-3.35-.918a1.204 1.204 0 0 0-1.2-.018c-.37.21-.61.591-.61 1.018l2.2 10.2c0 1.164-1 2.11-2.19 2.11h-36.8c-1.19 0-2.18-.946-2.18-2.11l2.2-10.018c0-.409.22-.79.58-1 .36-.209.81-.218 1.17-.027.92.482 1.97.764 3.08.764 3.59 0 6.49-2.846 6.49-6.355 0-.437-.04-.855-.13-1.264h37.1z" fill="#E8E6E1"/></svg>