<svg xmlns="http://www.w3.org/2000/svg" width="90" height="90" viewBox="0 0 90 90">
  <defs>
    <style>
      .cls-1 {
        fill: #575452;
      }

      .cls-2, .cls-3, .cls-5 {
        opacity: 0.2;
      }

      .cls-3, .cls-4 {
        fill: #fff;
      }
    </style>
  </defs>
  <g id="Layer_1" data-name="Layer 1">
    <g>
      <path class="cls-1" d="M79.47,72.65c-.85-1.86-2.28-2.51-4.13-3.58C72,58.8,73.92,56,74.62,53.88c2-6.17,2-7.3,1.93-12.42a75.94,75.94,0,0,0-1.65-9.62L76.83,12l-2.89-.73-7.83,1S16.38,39.26,15.83,39.67s-.55,32.84-.55,32.84l.85,6.14c0,.92,0,1.9,0,3V85H80.6S80.71,75.4,79.47,72.65ZM18.3,57.39c0-.44.9-10.15,1-10.57,2.44,0,10.58-10.72,17.31-1.52-7.81,6.84-12.92,17.55-15.32,23.87a10,10,0,0,0-2.36,1.44A62.07,62.07,0,0,1,18.3,57.39Z"/>
      <path class="cls-2" d="M47.82,60.63c3.77,2.52,6.54,4.56,8.56,6.18H64.9a35.38,35.38,0,0,1,10.44,2.25C72,58.8,73.92,56,74.62,53.88c2-6.17,2-7.3,1.93-12.42a64.9,64.9,0,0,0-1.41-8.54h0S67.84,43.05,63.4,46.74a44,44,0,0,1-9.8,5.71,1.52,1.52,0,0,1-2.08-1c-1-3.79-3.55-12.94-4.25-15.63-.86-3.33-4.83,13-12.92,16.36a2.9,2.9,0,0,1-1.49.18l-1.7-.23-1.34.76a74,74,0,0,0-8.57,16.27s-2.56,1.15-2.85,2c.08.22,1,2.09.91,1.6l-2.88,8.16C16.71,83,17,84.73,17,85h4.23C24.28,81.83,40.29,55.62,47.82,60.63Z"/>
      <path class="cls-3" d="M32,66.81s-6.58.33-11.13,2.57l-.23.11-.25.14a9.64,9.64,0,0,0-1.45,1v0a5.53,5.53,0,0,0-2.22,3.31H17s2.79-3,29.69-3h3.43c25.79,0,29.52,2.73,29.78,2.95a9.75,9.75,0,0,0-.45-1.2c-.85-1.86-2.28-2.51-4.13-3.58h0A35.38,35.38,0,0,0,64.9,66.81Z"/>
      <path class="cls-1" d="M19,59.72c-1,8.62,2.9,17.23,2.85,19.91C21.84,82,20.64,84,17,84.9a7.07,7.07,0,0,1-1.13.1h-.37a4.61,4.61,0,0,1-2.76-1.27,18.58,18.58,0,0,0,.46-2.57,12,12,0,0,0-.72-6.08c-1.06-2.37-9.81-23.87,7.72-46.83L20.4,28l0-.29A28.48,28.48,0,0,1,25,16.13a20.85,20.85,0,0,1,12.3-8.89,39.05,39.05,0,0,1,8.67-1h0A53.83,53.83,0,0,1,57.74,5h0c6.34,0,14.11,1.15,20.34,5.6,3.64,8.79-3.22,23-3.22,23h0C73.18,36.08,63.27,45.16,53.8,49.48c-3.42-6-5.49-16.9-5.49-16.9a11.57,11.57,0,0,1-4.57,3c-2.58,1.11-8.84,16-11.22,15l-.25-.08-4.05-3.13a2.87,2.87,0,0,0-1.11-.23,2.64,2.64,0,0,0-1,.21C25.4,47.66,19.88,54.45,19,59.72Z"/>
      <path class="cls-2" d="M23.77,45.7l1.32-2.48C19.56,44.71,14.18,49.84,14,60c-.14,9.2,6.17,15.74,7.37,16.9C20.41,73,18.3,66.36,19,59.72c.68-4.29,4.46-9.58,6.21-11.57l-.05,0C23.12,47.16,23.77,45.7,23.77,45.7Z"/>
      <path class="cls-3" d="M11.33,52.05A43.06,43.06,0,0,1,23.41,29.56a33.12,33.12,0,0,1,.3-5c3.66-17.41,19.36-17.16,21-17.16s2.55,4.45,2.55,4.45,4.83-4.55,14.89-4.55c7.22,0,11.63,1.14,14.07,2C70.32,5.94,63.45,5,57.74,5h0A53.83,53.83,0,0,0,45.93,6.28h0a39.05,39.05,0,0,0-8.67,1A20.85,20.85,0,0,0,25,16.13a28.48,28.48,0,0,0-4.52,11.6l0,.29-.17.23c-17.53,23-8.78,44.46-7.72,46.83a12,12,0,0,1,.72,6.08,18.58,18.58,0,0,1-.46,2.57A4.24,4.24,0,0,0,14.6,84.8a23.25,23.25,0,0,0,.72-5.45C15.53,73.71,8.62,66.26,11.33,52.05Z"/>
      <path class="cls-2" d="M78.37,11.36a36.81,36.81,0,0,0-26.61,9s19.93-3.16,25,8.48C78.41,24.11,80.22,16.85,78.37,11.36Z"/>
      <path class="cls-4" d="M32.25,48.68,27,46.37a1.11,1.11,0,0,0-1.44.49,10.33,10.33,0,0,1-4.75,4.69,12.6,12.6,0,0,1-7.06,1.21C12.12,52.5,11.21,54,13,55.48c2.67,2.19,9.18,2.3,14,.06a16.41,16.41,0,0,0,5.76-4.44A1.56,1.56,0,0,0,32.25,48.68Z"/>
      <g class="cls-5">
        <path d="M13,55.48c2.67,2.19,9.18,2.3,14,.06a16.41,16.41,0,0,0,5.76-4.44,1.56,1.56,0,0,0-.57-2.42l-5-2.21c.67.46,4.39,3.09,2.89,4.89a12.06,12.06,0,0,1-4.71,3.24c-6.88,2.89-10.6,1.39-13.31-.36A2.67,2.67,0,0,0,13,55.48Z"/>
      </g>
    </g>
  </g>
</svg>
