<svg width="90" height="90" fill="none" xmlns="http://www.w3.org/2000/svg"><g clip-path="url(#a)"><path d="M85 85V13a8 8 0 0 0-8-8H13a8 8 0 0 0-8 8v72h80z" fill="#81B64C"/><path fill-rule="evenodd" clip-rule="evenodd" d="M13 5h32v37h40v35H45V42H5V13a8 8 0 0 1 8-8z" fill="#E7E6E5"/><path fill-rule="evenodd" clip-rule="evenodd" d="M73.319 42 60 25a4 4 0 0 0-4 4l9.184 13h8.135z" fill="#45753C"/><path fill-rule="evenodd" clip-rule="evenodd" d="M73.319 42h-8.135L85 70.05V56.91L73.319 42z" fill="#BEBDB9"/><path fill-rule="evenodd" clip-rule="evenodd" d="M12.948 5H45v1.343L15.25 7.675a8 8 0 0 0-7.631 7.572L6.21 42H5V13a8 8 0 0 1 7.948-8z" fill="#F8F8F8"/><path fill-rule="evenodd" clip-rule="evenodd" d="M75 5H45v1.343L75 5zM6.21 42H5v23l1.21-23z" fill="#B2E068"/><path d="M60.004 21A4.004 4.004 0 0 0 56 25.004v.246L90 62V45.767L60.004 21z" fill="#F1F1F1"/><path d="m60.004 21-.373 1.027L90 49.788v-4.02L60.004 21z" fill="#fff"/><path d="M5 77h80l5 9H0l5-9z" fill="#E2B664"/><path d="m5 77-2 7h84l-2-7 5 9H0l5-9z" fill="#F9D983"/><path d="M0 86h90v2a2 2 0 0 1-2 2H2a2 2 0 0 1-2-2v-2z" fill="#6A4632"/></g><defs><clipPath id="a"><path fill="#fff" d="M0 0h90v90H0z"/></clipPath></defs></svg>