<svg id="Layer_1" data-name="Layer 1" xmlns="http://www.w3.org/2000/svg" viewBox="0 0 90 90"><defs><style>.cls-1{fill:#e7e6e5;}.cls-2{fill:#96bc4b;}.cls-3{fill:#ca3431;}.cls-4{fill:#0097c7;}.cls-5{fill:#6c9d41;}.cls-6{fill:#0381b8;}.cls-7{fill:#dad8d6;}.cls-8{fill:#666564;}.cls-9{fill:#8b8987;}.cls-10{fill:#b23330;}</style></defs><path class="cls-1" d="M80.89,90H9.11a1,1,0,0,1-1-1V40.43L45,6.78,81.89,40.43V89A1,1,0,0,1,80.89,90Z"/><circle class="cls-2" cx="31.13" cy="50.18" r="8.35"/><path class="cls-3" d="M66.42,60.46a.61.61,0,0,1,.72.5c1,10.46-7.72,20.07-19.75,21.62s-22.91-5.53-24.6-15.9a.61.61,0,0,1,.57-.66Z"/><path class="cls-4" d="M66.75,52.93a8.35,8.35,0,1,0-15.76,0Z"/><path class="cls-5" d="M31.13,43.75a8.35,8.35,0,0,1,8.29,7.39,7.5,7.5,0,0,0,.06-1,8.35,8.35,0,1,0-16.7,0,7.5,7.5,0,0,0,.06,1A8.35,8.35,0,0,1,31.13,43.75Z"/><path class="cls-6" d="M58.87,43.75a8.36,8.36,0,0,1,8.29,7.38,7.46,7.46,0,0,0,.06-1,8.35,8.35,0,1,0-16.7,0c0,.32,0,.64.06,1A8.36,8.36,0,0,1,58.87,43.75Z"/><path class="cls-7" d="M81.89,40.43,45,6.78,8.11,40.43v10L43.8,19a1.8,1.8,0,0,1,2.4,0l14.29,12.6C74.74,44.19,76.17,66.26,63.05,80,58,85.31,50.82,89.29,40.81,90H80.89a1,1,0,0,0,1-1V50.48h0Z"/><path class="cls-8" d="M82.54,46.28l-36.34-32a1.8,1.8,0,0,0-2.4,0l-36.34,32a1.82,1.82,0,0,1-2.57-.16l-4.44-5a1.82,1.82,0,0,1,.17-2.57L43.8.45a1.82,1.82,0,0,1,2.4,0L89.38,38.52a1.82,1.82,0,0,1,.17,2.57l-4.44,5A1.81,1.81,0,0,1,82.54,46.28Z"/><path class="cls-9" d="M1.11,41.83,43.8,4.2c3.12-3.12.91-4.66,0-3.75L.62,38.52a1.82,1.82,0,0,0-.17,2.57Z"/><path class="cls-10" d="M56.45,79.61c7-4,11.41-11.08,10.69-18.65a.61.61,0,0,0-.72-.5L23.36,66a.61.61,0,0,0-.57.66l42.07-3.56S65.38,74.67,56.45,79.61Z"/></svg>