<svg width="90" height="90" fill="none" xmlns="http://www.w3.org/2000/svg"><g clip-path="url(#a)"><path d="M79 5H11a6 6 0 0 0-6 6v46a6 6 0 0 0 6 6h68a6 6 0 0 0 6-6V11a6 6 0 0 0-6-6z" fill="#4B4847"/><path d="M79 8H11a6 6 0 0 0-6 6v46a6 6 0 0 0 6 6h68a6 6 0 0 0 6-6V14a6 6 0 0 0-6-6z" fill="#749BBF"/><path d="M79 5H11a6 6 0 0 0-6 6v46a6 6 0 0 0 6 6h68a6 6 0 0 0 6-6V11a6 6 0 0 0-6-6z" fill="#D0E6FB"/><path d="M85 32v25a6 6 0 0 1-6 6H54l19.3-2.145a10 10 0 0 0 8.796-8.524L85 32z" fill="#E5F6FF"/><path opacity=".5" d="M5 58.469V11a6 6 0 0 1 6-6h53.37l-4.893.294C30.63 7.026 7.43 29.673 5 58.469z" fill="#E5F6FF"/><path d="M5 19v-8a6 6 0 0 1 6-6h7l-3.587.16c-5.07.228-9.066 4.222-9.2 9.295A98.844 98.844 0 0 1 5 19z" fill="#FAFFFF"/><path fill-rule="evenodd" clip-rule="evenodd" d="M62.29 63H41.712c2.147-2.487 3.79-5.633 4.17-10.34l.24-2.845h-6.72c-.84-1.422-1.2-3.082-1.2-4.74l7.92-4.742c-3.96-2.607-5.64-6.163-5.64-9.955 0-6.282 5.16-11.378 11.52-11.378 6.36 0 11.52 5.096 11.52 11.378 0 4.03-1.32 6.992-5.64 9.837l7.92 4.86c0 1.658-.36 3.318-1.2 4.74h-6.72l.24 2.844c.38 4.708 2.022 7.854 4.168 10.341z" fill="#AED0F0"/><path d="M62.525 69.124C49.978 59.512 51.373 51.172 51.21 47.741h7.651c.9-1.668 1.353-3.216 1.353-5.142l-8.679-5.743a12.07 12.07 0 0 0 4.981-9.776c0-5.064-3.106-9.406-7.514-11.194-1.395-.568-11.22 31.855-11.22 31.855-.035.74-.043 1.72-.043 2.88 0 3.225 7.882 2.734 7.463 5.58-.633 4.257-.762 7.49-4.408 17.704-2.465 6.895-18.872 0-20.044 3.387-.814 2.356-1.25 4.996-1.25 7.842 0 .3.659 4.866 25 4.866s25-4.566 25-4.866c0-6.93-2.576-12.648-6.967-16.01h-.008z" fill="#5D9948"/><path d="M44.055 73.44c1.352-6.182 2.55-12.776 3.286-16.723.908-4.927-6.538-5.812-9.594-6.26-.137 4.205-1.31 11.04-11.28 18.675-2.688 2.055-4.69 5.004-5.846 8.564 2.688 1.316 6.282 2.107 11.82 2.107 3.551 0 10.125.43 11.614-6.346v-.017zM49.284 47.741c1.181-3.078 1.027-5.142 1.027-5.142L45.4 36.856c5.229-2.244 8.37-6.449 8.37-11.358a12.09 12.09 0 0 0-4.733-9.604A11.889 11.889 0 0 0 44.5 15c-6.642 0-12.017 5.408-12.017 12.072a12.07 12.07 0 0 0 4.982 9.775l-8.679 5.744c0 1.926.454 3.473 1.352 5.141h19.146v.009z" fill="#81B64C"/><path d="M43.815 17.468c6.933 1.083-3.192 9.165-6.385 8.778-3.038-.36-.11-9.793 6.385-8.778z" fill="#B2E068"/></g><defs><clipPath id="a"><path fill="#fff" d="M0 0h90v90H0z"/></clipPath></defs></svg>