<svg width="90" height="90" fill="none" xmlns="http://www.w3.org/2000/svg"><path d="M82.013 21.454c-4.208 0-7.887 3.735-7.887 7.987 0 1.609.743 3.094 1.294 3.983l-9.011 9.607-1.047-22.173c3.072-1.024 5.277-4.084 5.277-7.527 0-4.691-3.679-8.37-8.37-8.37a8.333 8.333 0 0 0-8.37 8.37c0 2.442 1.192 4.804 3.093 6.255l-6.525 18.799-2.733-7.875-3.792-10.935c1.913-1.451 3.094-3.814 3.094-6.255 0-4.613-3.757-8.37-8.37-8.37a8.333 8.333 0 0 0-8.37 8.37c0 3.51 2.171 6.525 5.276 7.538l-.46 14.186-9.338 7.661 4.983 26.325c-9.416 1.755-9.405 7.414-9.382 13.927V85.028h58.162v-2.07c.023-6.514.034-12.173-9.382-13.928l13.207-31.759c3.51-.472 6.627-4.061 6.627-7.841 0-4.399-3.578-7.988-7.988-7.988l.011.012z" fill="#E7E6E5"/><path d="M90 29.441a7.94 7.94 0 0 0-1.755-4.972c.641 2.497-.9 5.737-2.239 6.986-1.687 1.575-4.5 1.89-5.546 4.286 0 0-6.255 12.724-14.861 22.028-9.012 9.753-15.064 10.575-15.064 10.575l19.654.641 13.185-31.703c3.51-.472 6.626-4.06 6.626-7.84z" fill="#BEBDB9"/><path d="M60.694 30.758H33.22A4.53 4.53 0 0 0 28.7 35.28v3.341a4.53 4.53 0 0 0 4.522 4.523h5.873L23.197 59.04l-1.068 1.069 1.068 1.069 11.588 11.587 1.069 1.069 1.068-1.069L52.82 56.87v7.189a4.53 4.53 0 0 0 4.522 4.522h3.341a4.53 4.53 0 0 0 4.523-4.522v-28.79a4.53 4.53 0 0 0-4.523-4.522l.012.012z" fill="#5D9948"/><path d="M60.694 32.265H33.22a3.015 3.015 0 0 0-3.015 3.015v3.341a3.015 3.015 0 0 0 3.015 3.015h9.518L24.266 60.11l11.588 11.587 18.472-18.472v10.834a3.015 3.015 0 0 0 3.015 3.014h3.341a3.015 3.015 0 0 0 3.015-3.014v-28.79a3.015 3.015 0 0 0-3.015-3.014l.012.011z" fill="#81B64C"/><path opacity=".3" d="M60.694 32.265H33.22a3.015 3.015 0 0 0-3.015 3.015v3.341a3.015 3.015 0 0 0 3.015 3.015h9.518L24.266 60.11l5.873 5.872 32.748-32.748a2.98 2.98 0 0 0-2.205-.968h.012z" fill="#B2E068"/><path d="M83.891 21.69a7.955 7.955 0 0 0-1.878-.236c-4.208 0-7.887 3.735-7.887 7.987 0 1.227.428 2.374.867 3.24.349-6.918 5.614-10.35 8.898-10.991zM39.915 5.062a9.03 9.03 0 0 0-1.238-.1c-4.69 0-8.37 3.678-8.37 8.37 0 1.462.394 2.823 1.058 4.004.934-7.11 5.141-11.104 8.55-12.274zM63.821 5.107a8.88 8.88 0 0 0-1.563-.146c-4.613 0-8.37 3.758-8.37 8.37 0 1.362.382 2.7 1.046 3.87.945-7.335 5.501-11.261 8.887-12.094z" fill="#fff"/><path d="M39.431 68.119c-3.847-2.419-5.726-5.063-6.66-7.313h2.768l1.136-2.115.27-.495.18-.326c.675-1.237 1.44-2.644 1.44-5.231V49.96l-1.811-1.192-.428-.282-1.856-1.226a14.861 14.861 0 0 0 2.149-7.729c0-3.284-1.08-6.31-2.87-8.774h-.528A4.53 4.53 0 0 0 28.7 35.28v3.341c0 .518.1 1.013.27 1.485l-3.173 2.599 2.183 11.554-4.77 4.77-1.07 1.068 1.07 1.07 7.503 7.503.068.36c-9.416 1.755-9.405 7.414-9.383 13.927V85.028h25.954v-.957c0-6.986-2.88-12.802-7.92-15.963v.01z" fill="#5D9948"/><path d="M39.431 68.119c-3.847-2.419-5.726-5.063-6.66-7.313h2.768l1.136-2.115.27-.495.18-.326c.675-1.237 1.44-2.644 1.44-5.231V49.96l-1.811-1.192-.428-.282-1.856-1.226a14.861 14.861 0 0 0 2.149-7.729c0-3.284-1.08-6.31-2.87-8.774h-.528A4.53 4.53 0 0 0 28.7 35.28v3.341c0 .518.1 1.013.27 1.485l-3.173 2.599 2.183 11.554-4.77 4.77-1.07 1.068 1.07 1.07 7.503 7.503.068.36c-9.416 1.755-9.405 7.414-9.383 13.927V85.028h25.954v-.957c0-6.986-2.88-12.802-7.92-15.963v.01z" fill="#5D9948"/><path d="m35.528 60.817.258-.483-.472.483h.214z" fill="#81B64C"/><path d="M39.431 68.119c-2.925-1.834-4.702-3.803-5.805-5.625L30.15 65.97l-5.873-5.873 11.79-11.79-1.597-1.046a15.049 15.049 0 0 0 2.002-5.625h-3.25a3.015 3.015 0 0 1-3.016-3.015V35.28a3.015 3.015 0 0 1 3.015-3.015h1.485a16.215 16.215 0 0 0-.956-1.508h-.529A4.53 4.53 0 0 0 28.7 35.28v3.341c0 .518.1 1.013.27 1.485l-3.173 2.599 2.183 11.554-4.77 4.77-1.07 1.068 1.07 1.07 7.503 7.503.068.36c-9.416 1.755-9.405 7.414-9.383 13.927V85.028h25.954v-.957c0-6.986-2.88-12.802-7.92-15.963v.01z" fill="#45753C"/><path d="M30.206 35.28v3.341a3.015 3.015 0 0 0 3.015 3.015h3.252a14.829 14.829 0 0 0-1.766-9.371H33.22a3.015 3.015 0 0 0-3.015 3.015zM36.945 58.196l.18-.326c.675-1.237 1.44-2.644 1.44-5.231V49.96l-1.811-1.192-.428-.282-.258-.168-11.79 11.79 5.872 5.872 3.476-3.476a12.545 12.545 0 0 1-.855-1.688h2.543l.484-.483.877-1.632.27-.494v-.012z" fill="#5D9948"/><path d="M21.656 28.609c-6.03 0-10.935 4.905-10.935 10.935 0 3.352 1.541 6.502 4.152 8.572l-5.67 3.735-.428.282v.517c0 1.553.382 2.25.956 3.296l.191.349.27.506h5.378c-.236 2.666-.968 9.36-9.529 14.738-3.836 2.407-6.03 6.986-6.03 12.555v.956h43.313v-.956c0-5.569-2.194-10.148-6.03-12.555-8.55-5.367-9.281-12.072-9.529-14.738h5.377l.27-.495.192-.337c.574-1.047.956-1.744.956-3.297v-.517l-.428-.281-5.67-3.747a10.944 10.944 0 0 0 4.152-8.572c0-6.03-4.905-10.935-10.935-10.935l-.023-.011z" fill="#E7E6E5"/><path d="M15.829 52.133c.315-2.116-.99-3.983-.945-4.017l-6.098 4.017h7.043z" fill="#fff"/><path d="M27.034 68.332c4.421 4.174 11.34 5.31 12.915 5.524a11.39 11.39 0 0 0-2.655-2.328c-8.55-5.367-9.281-12.072-9.529-14.738h5.377l.27-.495.192-.337c.574-1.047.956-1.744.956-3.297v-.517l-.428-.282-5.67-3.746a10.944 10.944 0 0 0 4.152-8.572c0-4.68-2.959-8.663-7.099-10.226 3.634 2.564 6.109 9.19 2.689 14.006-2.633 3.712-7.763 4.826-7.763 4.826h6.334c.079.068 4.466 4.77-.045 7.695H9.698l.056.113.191.337.27.506h5.377c0 .079-.01.169-.022.259.315.315 6.413 6.491 11.497 11.284l-.033-.011z" fill="#BEBDB9"/><path d="M22.86 28.676a10.642 10.642 0 0 0-1.204-.067c-6.03 0-10.935 4.905-10.935 10.935 0 1.564.349 3.082.967 4.477.89-9.709 6.987-14.625 11.16-15.334l.012-.01zM10.339 72.461c3.476-2.531 4.038-9.978 4.061-10.451-1.148 2.936-3.476 6.446-8.381 9.518C2.239 73.9.068 78.39 0 83.846c2.07-6.581 4.984-7.504 10.328-11.385h.01z" fill="#fff"/></svg>