<svg width="90" height="90" fill="none" xmlns="http://www.w3.org/2000/svg"><path d="M85 49c0 22.091-17.909 40-40 40S5 71.091 5 49v-4h80v4z" fill="#881822"/><path d="M45 85c22.091 0 40-17.909 40-40S67.091 5 45 5 5 22.909 5 45s17.909 40 40 40z" fill="#FA412D"/><path d="M45 85c21.334-1.73 38.27-18.666 40-40 0 22.091-17.909 40-40 40z" fill="#FF8A75"/><path fill-rule="evenodd" clip-rule="evenodd" d="m77.004 68.998-6.663-1.31L46.41 43.7l-3.39 3.4 24.303 24.36 1.165 5.922a40.234 40.234 0 0 0 8.516-8.384z" fill="#AD1F24"/><path fill-rule="evenodd" clip-rule="evenodd" d="M45 75.13c16.585 0 30.03-13.49 30.03-30.13S61.585 14.87 45 14.87 14.97 28.36 14.97 45 28.415 75.13 45 75.13zM45 64c10.493 0 19-8.507 19-19s-8.507-19-19-19-19 8.507-19 19 8.507 19 19 19zm8-19a8 8 0 1 1-16 0 8 8 0 0 1 16 0z" fill="#F1F1F1"/><path fill-rule="evenodd" clip-rule="evenodd" d="m67.554 64.894-7.846-7.865a19.107 19.107 0 0 1-3.486 3.304l7.89 7.908a30.261 30.261 0 0 0 3.442-3.347zM48.229 52.32l-5.21-5.221 3.39-3.4 5.434 5.446a8.032 8.032 0 0 1-3.614 3.175z" fill="#BEBDB9"/><path d="M45 5C23.666 6.73 6.73 23.666 5 45 5 22.909 22.909 5 45 5z" fill="#FF8A75"/><path d="M62.491 17.295a3 3 0 0 1 .513-1.887L71.952 2.25c1.193-1.755 3.782-1.75 4.968.01l4.358 6.462L63.13 26.87l-.638-9.575z" fill="#CF8D1B"/><path fill-rule="evenodd" clip-rule="evenodd" d="m66.626 23.374-3.968-7.284a3 3 0 0 1 .346-.682l1.544-2.271 4.343 7.972-2.265 2.265zm6.507-6.508-2.264 2.265-4.624-8.489 1.942-2.856 4.946 9.08zm4.243-4.242-2.265 2.264-5.228-9.597 1.943-2.856 5.55 10.188z" fill="#E3AA24"/><path d="M73.467 11.46a8.405 8.405 0 0 1 7.704-2.631l-18.05 18.05-.235-3.742L73.467 11.46z" fill="#CF8D1B"/><path d="m63.373 14.88 9.386-13.816a2 2 0 0 1 3.327.028l5.078 7.744-5.728-6.642a2 2 0 0 0-3.145.147l-8.918 12.538z" fill="#FCE26A"/><path d="M72.704 27.508a3 3 0 0 0 1.887-.512l13.16-8.949c1.754-1.193 1.75-3.781-.01-4.968l-6.463-4.358L63.13 26.87l9.575.638z" fill="#F7C631"/><path fill-rule="evenodd" clip-rule="evenodd" d="m66.626 23.374 7.284 3.967c.239-.085.468-.2.68-.345l2.272-1.545-7.971-4.342-2.265 2.265zm6.507-6.508-2.265 2.265 8.489 4.624 2.857-1.943-9.08-4.946zm4.243-4.242-2.265 2.264 9.597 5.228 2.857-1.942-10.19-5.55z" fill="#E3AA24"/><path d="M78.54 16.532a8.405 8.405 0 0 0 2.63-7.703l-18.05 18.05 3.742.235 11.677-10.582z" fill="#CF8D1B"/><path d="m75.12 26.626 13.815-9.386a2 2 0 0 0-.027-3.327l-7.744-5.077 6.642 5.728a2 2 0 0 1-.147 3.144L75.12 26.626z" fill="#FCE26A"/><path d="M84.083 6.149a2.474 2.474 0 0 0-3.496 0l-37.54 37.475a2.474 2.474 0 0 0 3.496 3.503l37.54-37.475a2.474 2.474 0 0 0 0-3.503z" fill="#009FD9"/><path d="M44.82 46.139a4.196 4.196 0 0 1-1.777.984 2.48 2.48 0 0 0 3.504 0L85.838 7.9 44.82 46.139z" fill="#008CD1"/></svg>