<svg id="Layer_1" data-name="Layer 1" xmlns="http://www.w3.org/2000/svg" width="90" height="90" viewBox="0 0 90 90">
  <defs>
    <style>
      .cls-1 {
        fill: #0a5886;
      }

      .cls-2 {
        fill: #7dacc9;
      }

      .cls-3 {
        fill: #39719c;
      }
    </style>
  </defs>
  <g>
    <path class="cls-1" d="M55.48,31.63c6.58,0,11-.88,13.49-2.68A13.59,13.59,0,0,0,63.18,4.5,13.49,13.49,0,0,0,53.05,6.9c-2.53,1.82-4.78,5.82-6.87,12.21C45.72,20.5,45.33,21.84,45,23c-.33-1.19-.72-2.53-1.18-3.92C41.73,12.72,39.48,8.72,37,6.9A13.6,13.6,0,0,0,15.56,20.09,13.48,13.48,0,0,0,21,29c2.49,1.81,6.91,2.68,13.49,2.68.08,0,.17,1.61.26,1.61,4.62,0,15.82,0,20.44,0C55.31,33.24,55.4,31.63,55.48,31.63Zm-31-7.52a7.63,7.63,0,0,1,8.94-12.37c.51.37,2.35,2.12,4.67,9.18.55,1.66,1,3.43,1.35,4.75C33.76,25.67,26.67,25.66,24.52,24.11Zm26,1.55c1.46-5.53,3.88-12.37,6-13.92a7.63,7.63,0,0,1,8.94,12.37c-.51.37-2.75,1.57-10.19,1.55C53.54,25.65,51.88,25.75,50.51,25.66Z"/>
    <g>
      <path class="cls-2" d="M9.93,48V82.84a2.84,2.84,0,0,0,2.84,2.84h63.6c1.57,0,2.85-1.27,2.85-7.92V48Z"/>
      <rect class="cls-3" x="9.93" y="39.93" width="69.29" height="14.23"/>
      <rect class="cls-2" x="5" y="31.63" width="80" height="19.19" rx="2.85"/>
      <rect class="cls-3" x="17.55" y="55.35" width="54.05" height="6.61" transform="translate(103.23 14.08) rotate(90)"/>
    </g>
    <rect class="cls-1" x="41.27" y="50.82" width="6.63" height="3.34"/>
  </g>
</svg>
