<svg xmlns="http://www.w3.org/2000/svg" width="90" height="90" viewBox="0 0 90 90">
  <defs>
    <style>
      .cls-1 {
        fill: #d2ceb4;
      }

      .cls-2 {
        opacity: 0.15;
      }

      .cls-3 {
        opacity: 0.07;
      }

      .cls-4 {
        fill: #ebe8ce;
      }
    </style>
  </defs>
  <g id="Layer_1" data-name="Layer 1">
    <g>
      <g>
        <path class="cls-1" d="M46,7.9a10.85,10.85,0,0,0-6.69,19.37L33.72,31l-.43.28v.51a9.82,9.82,0,0,0,1,4.27H40c-.23,2.65-1,9.14-9.43,14.49-3.8,2.4-6,6.95-6,12.47v.95L25.58,77,66.68,77,68,63.86v-1c0-5.53-2.56-10-6.37-12.35C53.12,45.16,52.37,38.66,52.13,36h5.78a9.65,9.65,0,0,0,.94-4.27v-.51l-.43-.28-5.63-3.7A10.85,10.85,0,0,0,46,7.9Z"/>
        <g>
          <path class="cls-2" d="M53.22,22.65c-2.6,3.69-7.69,4.57-7.69,4.57l6.28,0c.08.07,4.45,4.18,0,7.09l-18.15,0v.09a7.72,7.72,0,0,0,.6,1.63H40c0,.06,0,.12,0,.17L30.68,58.69s10.59,8.94,15.79,13.82c3.92,3.69,15.46-20.17,17.79-19.83a12.66,12.66,0,0,0-2.65-2.21C53.12,45.16,52.37,38.66,52.13,36h5.78a9.65,9.65,0,0,0,.94-4.27v-.49L58.53,31l-.11-.08-5.63-3.7a10.84,10.84,0,0,0-3-18.66h-.07C53.79,10.59,56.87,17.5,53.22,22.65Z"/>
          <path class="cls-3" d="M52.13,38.33c.24,2.65,3.11,5.52,11.6,10.83,1,.6-.26,5,.53,5.84-2.33-.34-13.87,23.52-17.79,19.83C41.27,70,30.68,61,30.68,61l5.63-20.44c0-.06,3.71-2.16,3.72-2.21H34.24a7.52,7.52,0,0,1-.6-1.63V36l19,0Z"/>
          <path class="cls-4" d="M39.38,27.23l-.05,0h0L33.72,31l-.43.28v.44h5.13A34.61,34.61,0,0,1,39.38,27.23Z"/>
          <path class="cls-4" d="M35.2,18.77a10.54,10.54,0,0,0,.48,3.12l.13.21c.68-9.2,6.54-13.74,10.35-14.2H46A10.84,10.84,0,0,0,35.2,18.77Z"/>
        </g>
      </g>
      <g>
        <path class="cls-1" d="M29.35,27.06a10.85,10.85,0,0,0-6.69,19.37L17,50.15l-.42.28v.51a9.71,9.71,0,0,0,.95,4.27h5.79c-.23,2.65-.95,9.14-9.44,14.49-3.79,2.4-6,6.94-6,12.47v.95h1L50,83h1.3V82c0-5.53-2.55-10-6.36-12.36-8.49-5.31-9.24-11.8-9.49-14.45h5.79a9.65,9.65,0,0,0,.94-4.27v-.51l-.42-.28-5.63-3.7a10.85,10.85,0,0,0-6.77-19.34Z"/>
        <g>
          <path class="cls-2" d="M36.55,41.81c-2.6,3.68-7.69,4.56-7.69,4.56h6.28c.08.07,4.44,4.17,0,7.09L17,53.48v.09a7.61,7.61,0,0,0,.6,1.64h5.79a1,1,0,0,0,0,.17H24s6.27,6.4,11.46,11.28c3.93,3.68,9.8,4.86,12.12,5.19a12.66,12.66,0,0,0-2.64-2.21c-8.49-5.31-9.24-11.8-9.49-14.45h5.79a9.65,9.65,0,0,0,.94-4.27V50.4l-.32-.23-.11-.07-5.63-3.7a10.84,10.84,0,0,0-3-18.66h-.06C37.12,29.74,40.19,36.65,36.55,41.81Z"/>
          <path class="cls-4" d="M22.71,46.39l-.06,0h0L17,50.15l-.42.28v.44h5.13A32.82,32.82,0,0,1,22.71,46.39Z"/>
          <path class="cls-4" d="M18.52,37.92A11,11,0,0,0,19,41.05a1.83,1.83,0,0,0,.13.21c.68-9.2,6.54-13.74,10.35-14.2h-.14A10.86,10.86,0,0,0,18.52,37.92Z"/>
          <path class="cls-4" d="M8.11,82.14c2.05-6.76,5-7.64,10.31-11.55,3.55-2.6,4-10.42,4-10.42s-.1.07-.33.43c-1.17,2.81-3.48,6.12-8.18,9.08a12.55,12.55,0,0,0-5.16,7C7.94,79.94,7.88,82.92,8.11,82.14Z"/>
        </g>
      </g>
      <g>
        <path class="cls-1" d="M62.7,27A10.85,10.85,0,0,0,56,46.35l-5.62,3.72-.43.28v.51a9.68,9.68,0,0,0,1,4.27H56.7c-.23,2.65-.94,9.14-9.43,14.49-3.8,2.4-6,6.94-6,12.47v1h.94l41.1-.08h1.3v-1c0-5.53-2.56-10-6.37-12.36-8.48-5.31-9.23-11.8-9.48-14.45h5.78a9.65,9.65,0,0,0,.94-4.27V50.3L75.1,50l-5.64-3.7A10.85,10.85,0,0,0,62.7,27Z"/>
        <g>
          <path class="cls-2" d="M69.9,41.73c-2.61,3.69-7.7,4.56-7.7,4.56h6.29c.08.07,4.44,4.18,0,7.09l-18.14,0v.08a6.68,6.68,0,0,0,.6,1.64H56.7a.88.88,0,0,1,0,.17h.67s6.26,6.4,11.46,11.28c3.92,3.69,9.8,4.86,12.12,5.19a13,13,0,0,0-2.65-2.21c-8.48-5.31-9.23-11.8-9.48-14.45h5.78a9.65,9.65,0,0,0,.94-4.27v-.49l-.31-.22L75.1,50l-5.64-3.7a10.84,10.84,0,0,0-3-18.66H66.4C70.46,29.67,73.54,36.57,69.9,41.73Z"/>
          <path class="cls-4" d="M56.05,46.31l0,0h0l-5.62,3.72-.43.28v.44H55.1A35.45,35.45,0,0,1,56.05,46.31Z"/>
          <path class="cls-4" d="M51.87,37.84A10.89,10.89,0,0,0,52.35,41l.13.21C53.16,32,59,27.44,62.83,27H62.7A10.85,10.85,0,0,0,51.87,37.84Z"/>
          <path class="cls-4" d="M41.45,82.06c2-6.75,5-7.64,10.31-11.55,3.56-2.59,4-10.42,4-10.42s-.1.07-.33.43c-1.17,2.81-3.48,6.12-8.18,9.08a12.46,12.46,0,0,0-5.16,7C41.28,79.87,41.22,82.84,41.45,82.06Z"/>
        </g>
      </g>
    </g>
  </g>
</svg>
