<svg id="Layer_1" data-name="Layer 1" xmlns="http://www.w3.org/2000/svg" width="90" height="90" viewBox="0 0 90 90">
  <defs>
    <style>
      .cls-1 {
        fill: #564c42;
      }

      .cls-2 {
        fill: #8e8579;
      }

      .cls-3 {
        fill: #726658;
      }
    </style>
  </defs>
  <g>
    <path class="cls-1" d="M18.42,54.86,23.82,52l5.25,7.92L22.19,84.72H7.67S3.41,82.5,3.49,82.25,9,71.26,9,71.26L13,63.47Z"/>
    <path class="cls-1" d="M71.6,54.86,66.2,52,61,59.94l6.88,24.78H82.35s4.26-2.22,4.17-2.47-5.53-11-5.53-11l-3.94-7.79Z"/>
    <g>
      <path class="cls-1" d="M8.59,78.23,23.82,52,18,42c-1.19-2-3-2-4.23,0L.52,81c-1.19,2.12-.27,3.71,2.12,3.71h5A8.16,8.16,0,0,1,8.59,78.23Z"/>
      <path class="cls-2" d="M76.51,81,49,33.48V25h9.8a2,2,0,0,0,1.45-.53,2.31,2.31,0,0,0,.53-1.32V18.92a2.28,2.28,0,0,0-.53-1.32,2,2,0,0,0-1.45-.53H49V7.27a1.81,1.81,0,0,0-.53-1.46,1.71,1.71,0,0,0-1.32-.53H42.88A1.81,1.81,0,0,0,41,7.14v9.93h-9.8a1.53,1.53,0,0,0-1.45.53,2,2,0,0,0-.53,1.32V23a2.34,2.34,0,0,0,.53,1.33,2,2,0,0,0,1.45.53H41v8.47L13.49,81c-1.19,2.12-.26,3.71,2.12,3.71H74.39C76.77,84.72,77.7,83.13,76.51,81Z"/>
      <g>
        <path class="cls-3" d="M45,7.27v9.8h4V7.27a1.81,1.81,0,0,0-.53-1.46,1.72,1.72,0,0,0-1.32-.53h-4a1.74,1.74,0,0,1,1.33.53A1.85,1.85,0,0,1,45,7.27Z"/>
        <path class="cls-3" d="M56.74,18.92v4.24a2.38,2.38,0,0,1-.53,1.32,2,2,0,0,1-1.46.53h4a2,2,0,0,0,1.45-.53,2.31,2.31,0,0,0,.53-1.32V18.92a2.28,2.28,0,0,0-.53-1.32,2,2,0,0,0-1.45-.53h-4a2,2,0,0,1,1.46.53A2.35,2.35,0,0,1,56.74,18.92Z"/>
        <path class="cls-3" d="M76.55,81,49,33.48V25H45v8.47l4.28,7.4A28.83,28.83,0,0,1,26.15,84.09c-5.8.38-9.95.63-10.57.63H74.43C76.81,84.72,77.74,83.13,76.55,81Z"/>
      </g>
      <path class="cls-1" d="M87.36,84.72c2.39,0,3.31-1.59,2.12-3.71L76.24,42c-1.19-2-3-2-4.23,0L66.18,52,81.41,78.23a8.12,8.12,0,0,1,.92,6.49Z"/>
    </g>
    <path class="cls-1" d="M18.42,54.86,23.82,52l5.25,7.92L22.19,84.72H7.67S3.41,82.5,3.49,82.25,9,71.26,9,71.26L13,63.47Z"/>
    <path class="cls-1" d="M71.6,54.86,66.2,52,61,59.94l6.88,24.78H82.35s4.26-2.22,4.17-2.47-5.53-11-5.53-11l-3.94-7.79Z"/>
    <g>
      <path class="cls-1" d="M8.59,78.23,23.82,52,18,42c-1.19-2-3-2-4.23,0L.52,81c-1.19,2.12-.27,3.71,2.12,3.71h5A8.16,8.16,0,0,1,8.59,78.23Z"/>
      <path class="cls-2" d="M76.51,81,49,33.48V25h9.8a2,2,0,0,0,1.45-.53,2.31,2.31,0,0,0,.53-1.32V18.92a2.28,2.28,0,0,0-.53-1.32,2,2,0,0,0-1.45-.53H49V7.27a1.81,1.81,0,0,0-.53-1.46,1.71,1.71,0,0,0-1.32-.53H42.88A1.81,1.81,0,0,0,41,7.14v9.93h-9.8a1.53,1.53,0,0,0-1.45.53,2,2,0,0,0-.53,1.32V23a2.34,2.34,0,0,0,.53,1.33,2,2,0,0,0,1.45.53H41v8.47L13.49,81c-1.19,2.12-.26,3.71,2.12,3.71H74.39C76.77,84.72,77.7,83.13,76.51,81Z"/>
      <g>
        <path class="cls-3" d="M45,7.27v9.8h4V7.27a1.81,1.81,0,0,0-.53-1.46,1.72,1.72,0,0,0-1.32-.53h-4a1.74,1.74,0,0,1,1.33.53A1.85,1.85,0,0,1,45,7.27Z"/>
        <path class="cls-3" d="M56.74,18.92v4.24a2.38,2.38,0,0,1-.53,1.32,2,2,0,0,1-1.46.53h4a2,2,0,0,0,1.45-.53,2.31,2.31,0,0,0,.53-1.32V18.92a2.28,2.28,0,0,0-.53-1.32,2,2,0,0,0-1.45-.53h-4a2,2,0,0,1,1.46.53A2.35,2.35,0,0,1,56.74,18.92Z"/>
        <path class="cls-3" d="M76.55,81,49,33.48V25H45v8.47l4.28,7.4A28.83,28.83,0,0,1,26.15,84.09c-5.8.38-9.95.63-10.57.63H74.43C76.81,84.72,77.74,83.13,76.55,81Z"/>
      </g>
      <path class="cls-1" d="M87.36,84.72c2.39,0,3.31-1.59,2.12-3.71L76.24,42c-1.19-2-3-2-4.23,0L66.18,52,81.41,78.23a8.12,8.12,0,0,1,.92,6.49Z"/>
    </g>
  </g>
</svg>
