<svg width="90" height="90" fill="none" xmlns="http://www.w3.org/2000/svg"><g clip-path="url(#a)"><path d="M19.356 81.492a2 2 0 0 1 2-2h47.289a2 2 0 0 1 2 2V88a2 2 0 0 1-2 2H21.356a2 2 0 0 1-2-2v-6.508zM19.634 48.7l9.964 6.555 9.115-12.747c-2.132-.543-3.701-2.386-3.701-4.58 0-2.712 2.393-4.749 5.019-4.749C39.699 30.335 42.26 28 45 28c2.738 0 5.301 2.335 4.969 5.18 2.626 0 5.019 2.036 5.019 4.747 0 2.195-1.57 4.038-3.702 4.581l9.115 12.747 9.965-6.554C66.54 42.896 74.682 37.85 80.029 42l-9.59 30.598A2 2 0 0 1 68.531 74H21.469a2 2 0 0 1-1.909-1.402L9.97 42c5.348-4.15 13.49.896 9.664 6.7zM15.272 18.692c16.364-14.256 43.093-14.256 59.457 0a4 4 0 0 0 5.255-6.031C60.608-4.22 29.393-4.22 10.017 12.66a4 4 0 1 0 5.255 6.031z" fill="#81B64C"/><path d="M25.855 28.507c10.518-9.143 27.773-9.143 38.29 0a4 4 0 1 0 5.25-6.038c-13.529-11.759-35.26-11.759-48.788 0a4 4 0 0 0 5.248 6.038z" fill="#81B64C"/><path d="M19.356 81.492a2 2 0 0 1 2-2h47.289a2 2 0 0 1 2 2v.39c0 1.091-1.505 1.383-1.912.37A2 2 0 0 0 66.878 81H23.123a2 2 0 0 0-1.855 1.253c-.407 1.012-1.912.72-1.912-.37v-.391zM10.815 42.5l10.486 27.982A6 6 0 0 0 24.828 74H21.44a2 2 0 0 1-1.909-1.402L9.941 42c5.348-4.15 13.49.896 9.664 6.7l9.964 6.555 9.115-12.747c-2.132-.543-3.701-2.386-3.701-4.58 0-2.712 2.393-4.749 5.019-4.749C39.669 30.335 42.232 28 44.97 28c2.738 0 5.301 2.335 4.969 5.18 2.626 0 5.02 2.036 5.02 4.747 0 2.195-1.57 4.038-3.702 4.581l9.115 12.747 9.964-6.554C66.511 42.896 74.653 37.85 80 42l-9.59 30.598A2 2 0 0 1 68.502 74h-3.33a6 6 0 0 0 3.527-3.518L79.185 42.5l-.255-.133a5.637 5.637 0 0 0-6.07.555l-.245.192a5.25 5.25 0 0 0-1.504 6.414l-9.686 7.477a2 2 0 0 1-2.997-.662L51.238 42.5l1.44-.998a3.629 3.629 0 0 0-2.066-6.611h-.927v-.22a4.685 4.685 0 0 0-9.37 0v.22h-.926a3.629 3.629 0 0 0-2.068 6.61l1.44.999-7.19 13.843a2 2 0 0 1-2.996.661l-9.686-7.476a5.25 5.25 0 0 0-1.504-6.414l-.245-.192a5.637 5.637 0 0 0-6.07-.555l-.255.133zM79.984 14.66a3.981 3.981 0 0 1 1.246 2.017 4 4 0 0 0-1.246-4.016C60.608-4.22 29.393-4.22 10.017 12.66a4 4 0 0 0-1.246 4.016 3.981 3.981 0 0 1 1.246-2.016c19.375-16.881 50.591-16.881 69.967 0z" fill="#B2E068"/><path d="M69.394 24.47a3.982 3.982 0 0 1 1.25 2.02 4 4 0 0 0-1.25-4.02c-13.528-11.76-35.26-11.76-48.787 0a4 4 0 0 0-1.25 4.02 3.982 3.982 0 0 1 1.25-2.02c13.528-11.76 35.26-11.76 48.787 0z" fill="#B2E068"/></g><defs><clipPath id="a"><path fill="#fff" d="M0 0h90v90H0z"/></clipPath></defs></svg>