<svg width="90" height="90" fill="none" xmlns="http://www.w3.org/2000/svg"><path d="M79.4 13.47c-6.77 2.64-12.66 12.72-9.96 17.17.96 1.59 7.63 1.38 7.89 1.38 2.48 0 4.95-.77 6.84-2.32 1.89-1.55 2.83-3.57 2.83-5.6v-9.17s-5.33-2.35-7.6-1.46zM31.31 19.92v9.17c0 2.894 2.819 3.4 5.02 3.4 5 0 10.91 3.398 10.91 8.95h3.481V20.265l-19.41-.345zM81.6 40.7 43 79.5l41.86-25.54c1.609-1 2.07-2.61 2.07-4.09V40.7H81.6z" fill="#99580E"/><path d="M77.33 7.01c4.391 0 9.475 2.8 9.67 7.658.235 5.823-5.926 8.142-10.76 8.142-.87 0-1.74.27-2.41.81-1.33 1.09-1.33 2.86 0 3.94l11.02 9.03c2.76 2.26 2.76 5.93 0 8.19L43.954 78.871c-.698.582-1.747.007-1.632-.894L44.23 63 7.413 84.431c-.948.552-1.965-.605-1.295-1.475L24.591 59 4.602 63.19c-.927.193-1.58-.89-.974-1.619L17.58 44.78l-15.686.093c-.943.006-1.369-1.176-.64-1.773L17.58 29.72c2.465-2.02 8.01-1.1 8.01 2.14 0 5.69 5.86 9.19 10.93 9.19 5.1 0 11.02-3.463 10.712-9.19-.289-5.376-6.029-8.55-10.902-8.55-1.406 0-2.51.134-3.7-.83-1.75-1.44-1.75-3.64-.09-5.01l9.48-7.77c1.38-1.13 3.19-1.7 5-1.7s3.62.57 5 1.7l9.87 8.08c.66.54 1.54.82 2.41.82.87 0 1.74-.27 2.41-.82.74-.61 1.07-1.42.98-2.21C67.17 10.277 72.647 7 77.33 7v.01z" fill="#F7C631"/><path opacity=".4" fill-rule="evenodd" clip-rule="evenodd" d="M85.074 44.589a6.467 6.467 0 0 1-.224.191L43.954 78.871c-.697.582-1.747.007-1.632-.894L44.23 63 7.413 84.431c-.948.552-1.965-.605-1.295-1.475L24.591 59 4.602 63.19c-.927.193-1.58-.89-.974-1.619L17.58 44.78l-15.686.093c-.943.006-1.369-1.176-.64-1.773L17.58 29.72c2.465-2.02 8.01-1.1 8.01 2.14 0 5.69 5.86 9.19 10.93 9.19 5.1 0 11.02-3.463 10.712-9.19-.289-5.376-6.029-8.55-10.902-8.55-.157 0-.309.002-.458.003-1.194.013-2.185.024-3.242-.833-1.35-1.11-1.66-2.674-.967-3.96l9.536 2.553c6.746 1.806 10.315 9.18 7.547 15.592-2.121 4.912 1.076 10.482 6.387 11.128L63 48.75l22.074-4.161z" fill="#FA742C"/><path opacity=".2" fill-rule="evenodd" clip-rule="evenodd" d="M19.639 28.791c2.642-.552 5.951.566 5.951 3.069 0 5.69 5.862 9.19 10.93 9.19 5.102 0 11.02-3.463 10.713-9.19-.289-5.376-6.029-8.55-10.902-8.55-.157 0-.309.002-.458.003-1.194.013-2.185.024-3.242-.833-.624-.513-1.026-1.123-1.209-1.757l8.5-5.585c8.671-5.699 19.684 2.686 16.498 12.561-2.063 6.396 4.488 12.177 10.578 9.336l2.853-1.332a11.658 11.658 0 0 1 13.174 2.321l3.766 3.767c-.258 1.095-.905 2.141-1.94 2.989L43.953 78.871c-.697.582-1.747.007-1.632-.894L44.23 63 7.413 84.431c-.948.552-1.965-.605-1.295-1.475L24.591 59 4.602 63.19c-.927.193-1.58-.89-.974-1.619L17.58 44.78l-15.686.093c-.943.006-1.369-1.176-.64-1.773l12.722-10.427 5.662-3.882z" fill="#FA742C"/><path fill-rule="evenodd" clip-rule="evenodd" d="M75.361 52.69 43.954 78.871c-.698.582-1.747.007-1.633-.894L44.23 63 7.413 84.431c-.949.552-1.965-.605-1.295-1.475L24.59 59 4.602 63.19c-.927.193-1.58-.89-.974-1.619L17.58 44.78l-15.686.093c-.942.006-1.368-1.176-.64-1.773L17.58 29.72c.836-.685 2.027-1.032 3.236-1.065C20.02 38.04 26.634 47.27 37 48.5l11 2.334a6.33 6.33 0 0 1 4.99 6.765c-.218 2.413 2.245 4.168 4.454 3.171l17.917-8.08z" fill="#FA742C"/><path fill-rule="evenodd" clip-rule="evenodd" d="M60.144 65.376 43.954 78.87c-.697.582-1.747.007-1.632-.894L44.23 63 7.413 84.43c-.948.552-1.965-.606-1.295-1.475L24.591 59 4.602 63.189c-.927.194-1.58-.89-.974-1.618L17.58 44.78l-15.686.093c-.943.006-1.369-1.176-.64-1.773l11.684-9.576-.707 5.063a2 2 0 0 0 1.365 2.18l5.144 1.664a2 2 0 0 1 1.329 2.368l-1.7 7.108a2 2 0 0 0 2.043 2.463l5.824-.284a2 2 0 0 1 2.068 1.653l1.043 5.965a2 2 0 0 0 2.61 1.55l13.474-4.555a2 2 0 0 1 2.584 1.422l1.29 5.3a2 2 0 0 0 2.297 1.495l8.54-1.54z" fill="#FA412D"/></svg>