<?xml version="1.0" encoding="utf-8"?>
<!-- Generator: Adobe Illustrator 19.1.1, SVG Export Plug-In . SVG Version: 6.00 Build 0)  -->
<svg version="1.1" id="Layer_1" xmlns="http://www.w3.org/2000/svg" xmlns:xlink="http://www.w3.org/1999/xlink" x="0px" y="0px"
	 width="90px" height="90px" viewBox="0 0 90 90" style="enable-background:new 0 0 90 90;" xml:space="preserve">
<style type="text/css">
	.st0{fill:none;}
	.st1{fill:#95704D;}
	.st2{fill:#814F35;}
	.st3{fill:#D2CEB4;}
	.st4{fill:#EBE8CE;}
	.st5{fill:#7C796B;}
</style>
<g>
	<rect class="st0" width="90" height="90"/>
	<g id="new_1_">
		<path class="st1" d="M11.9,21.5c-0.4-2.1-2.5-3.5-4.6-3s-3.5,2.5-3,4.6c0,0.1,0.1,0.3,0.1,0.4l16.3,61c0.4,2.1,2.5,3.5,4.6,3
			s3.5-2.5,3-4.6c0-0.1-0.1-0.3-0.1-0.4L11.9,21.5z"/>
		<path class="st2" d="M25.5,87.3c2.1-0.6,3.3-2.7,2.8-4.8c0,0,0,0,0,0l-16.3-61c-0.6-2.1-2.7-3.3-4.8-2.8c0,0,0,0,0,0L25.5,87.3z"
			/>
		<path class="st3" d="M75,2.9L75,2.9C75,2.9,75,2.9,75,2.9C75,2.9,75,2.9,75,2.9l-1.4-0.5L73,3.9l0.5,0.5c-3,2.8-6.7,4.9-10.7,6
			c-3.8,0.9-7.8,1.2-11.7,1.1c-3.8,0-7.6-0.3-11.5-0.3c-3.9-0.2-7.9,0.2-11.7,1.1c-3.9,0.9-7.5,2.8-10.5,5.5
			c-1.8,1.6-5.8,6.3-5.8,6.3l0.9,3.1L12,28.5l1.2,1.1l0,0l0,0c1.4-1.6,2.9-3.2,4.5-4.7c0.9,3.4,6.6,25,7.5,28.4
			c-1.2,1.4-3.4,3.4-4.2,5l1.2,4.2l-0.5,1.3l1.2,1l0,0c0.6-1.5,2.9-3.8,4.1-5.2c3.2-3.5,7.3-5.9,11.9-6.9c3.8-0.9,7.8-1.2,11.7-1.1
			c3.8,0,7.6,0.3,11.5,0.3c3.9,0.1,7.9-0.2,11.7-1.1c4.7-1.3,8.9-3.8,12.1-7.4C85.9,43.4,76.5,8.5,75,2.9L75,2.9z"/>
		<path class="st4" d="M73.7,2.4c-3.2,3.5-7.3,5.9-11.9,6.9c-3.8,0.9-7.8,1.3-11.7,1.1c-3.8,0-7.6-0.3-11.5-0.3
			c-3.9-0.2-7.9,0.2-11.7,1.1c-3.9,0.9-7.5,2.8-10.5,5.5l0,0c-1.8,1.6-5.8,6.3-5.8,6.3l1.5,5.4c1.4-1.6,2.9-3.2,4.5-4.7
			c0.9,3.4,6.6,25,7.5,28.4c-1.2,1.4-3.4,3.4-4.2,5l1.8,6.5c0.6-1.5,2.9-3.8,4.1-5.2c3.2-3.5,7.3-5.9,11.9-6.9
			c3.8-0.9,7.8-1.2,11.7-1.1c3.8,0,7.6,0.3,11.5,0.3c3.9,0.1,7.9-0.2,11.7-1.1c4.6-1,8.7-3.5,11.9-6.9C83,37.4,75.1,7.8,73.7,2.4z"
			/>
		<g id="checkered_flag_2_">
			<path class="st4" d="M45.8,37.2c-1.3-0.1-2.7,0-4,0l3.6,13.4c1.3-0.1,2.7-0.1,4-0.1c3.3,0,6.5,0.2,9.8,0.3l-3.6-13.4
				C52.3,37.4,49.1,37.2,45.8,37.2z"/>
			<path class="st4" d="M23.6,43.8c-0.4,0.4-0.9,0.9-1.4,1.4c0.9,3.3,1.6,6,1.8,7c-1.2,1.4-3.4,3.4-4.2,5l1.8,6.5
				c0.6-1.5,2.9-3.8,4.1-5.2c1.9-2.1,4.2-3.8,6.7-5l-3.6-13.4C26.9,41.1,25.2,42.3,23.6,43.8z"/>
			<path class="st5" d="M69,36.4c-3.8,0.9-7.8,1.3-11.7,1.1c-0.6,0-1.1,0-1.7,0l3.6,13.4c0.6,0,1.1,0,1.7,0
				c3.9,0.1,7.9-0.2,11.7-1.1c0,0,0,0,0.1,0L69,36.4C69,36.4,69,36.4,69,36.4z"/>
			<path class="st5" d="M34.1,38.2c-1.8,0.4-3.6,1.1-5.3,1.9l3.6,13.4c1.7-0.8,3.4-1.5,5.3-1.9c2.5-0.6,5.1-0.9,7.7-1l-3.6-13.4
				C39.2,37.3,36.6,37.7,34.1,38.2z"/>
			<path class="st4" d="M72.6,49.7c4.6-1.1,8.7-3.5,11.9-6.9c-0.5-2-1.9-7.2-3.6-13.4c-3.2,3.5-7.3,5.9-11.9,6.9L72.6,49.7z"/>
			<path class="st5" d="M42.2,23.6c-1.3-0.1-2.7,0-4,0l3.6,13.5c1.3-0.1,2.7-0.1,4,0c3.3,0,6.5,0.2,9.8,0.3L52,23.9
				C48.7,23.9,45.5,23.7,42.2,23.6z"/>
			<path class="st4" d="M53.6,24c-0.6,0-1.1,0-1.7,0l3.6,13.5c0.6,0,1.1,0,1.7,0c3.9,0.2,7.9-0.2,11.7-1.1c0,0,0,0,0.1,0l-3.6-13.5
				c0,0,0,0-0.1,0C61.5,23.7,57.6,24.1,53.6,24z"/>
			<path class="st5" d="M69,36.4c4.6-1.1,8.7-3.5,11.9-6.9c-1.2-4.4-2.4-9.2-3.6-13.5c-3.2,3.5-7.3,5.9-11.9,6.9L69,36.4z"/>
			<path class="st5" d="M28.8,40.2l-3.6-13.5c-1.9,1-3.7,2.2-5.2,3.6c-0.4,0.3-0.9,0.8-1.4,1.4c1.1,4.3,2.5,9.4,3.6,13.6
				c0.5-0.6,1-1.1,1.4-1.4C25.2,42.3,26.9,41.1,28.8,40.2z"/>
			<path class="st4" d="M30.5,24.7c-1.8,0.4-3.6,1.1-5.3,1.9l3.6,13.5c1.7-0.8,3.4-1.5,5.3-1.9c2.5-0.6,5.1-0.9,7.7-1l-3.6-13.5
				C35.6,23.8,33,24.1,30.5,24.7z"/>
			<path class="st5" d="M53.6,24c3.9,0.2,7.9-0.2,11.7-1.1c0,0,0,0,0.1,0L61.8,9.3c0,0,0,0-0.1,0c-3.8,0.9-7.8,1.3-11.7,1.1
				c-0.6,0-1.1,0-1.7,0L52,23.9C52.5,23.9,53.1,24,53.6,24z"/>
			<path class="st4" d="M42.2,23.6c3.3,0,6.5,0.2,9.8,0.3l-3.6-13.5c-3.3-0.1-6.5-0.3-9.8-0.3c-1.3-0.1-2.7,0-4,0l3.6,13.5
				C39.5,23.6,40.8,23.6,42.2,23.6z"/>
			<path class="st4" d="M61.8,9.3l3.6,13.5c4.6-1.1,8.7-3.5,11.9-6.9c-1.7-6.2-3.1-11.5-3.6-13.5C70.5,5.9,66.3,8.3,61.8,9.3z"/>
			<path class="st5" d="M30.5,24.7c2.5-0.6,5.1-0.9,7.7-1l-3.6-13.5c-2.6,0.1-5.1,0.5-7.7,1c-1.8,0.4-3.6,1.1-5.3,1.9l3.6,13.5
				C26.9,25.8,28.6,25.1,30.5,24.7z"/>
			<path class="st4" d="M25.2,26.6l-3.6-13.5c-1.9,1-3.7,2.2-5.2,3.6c-1.8,1.6-5.8,6.3-5.8,6.3l1.5,5.4c1.4-1.6,2.9-3.2,4.5-4.7
				c0.3,1.1,1.1,4.1,2.1,7.9c0.5-0.5,1-1,1.4-1.4C21.6,28.8,23.3,27.6,25.2,26.6z"/>
		</g>
	</g>
</g>
</svg>
