<svg width="90" height="90" fill="none" xmlns="http://www.w3.org/2000/svg"><path d="M0 81a4 4 0 0 0 4 4h18a4 4 0 0 0 4-4V49H0v32z" fill="#008CD1"/><path d="M0 49v-1a4 4 0 0 1 4-4h17.999a4 4 0 0 1 4 4v1H0z" fill="#4DC3EA"/><path d="M.01 85V49H26C12.004 49.214.664 60.422.286 74.414L0 84.987.01 85z" fill="#009FD9"/><path d="M58 81a4 4 0 0 1-4 4H36.002a4 4 0 0 1-4-4V31H58v50z" fill="#008CD1"/><path d="M32 31v-1a4 4 0 0 1 4-4h17.999a4 4 0 0 1 4 4v1H32z" fill="#4DC3EA"/><path d="M32.01 67V31H58c-13.996.214-25.336 11.422-25.714 25.414L32 66.987l.01.013z" fill="#009FD9"/><path d="M90 10H64v71a4 4 0 0 0 4 4h18a4 4 0 0 0 4-4V10z" fill="#008CD1"/><path d="M64 10V9a4 4 0 0 1 4-4h17.999a4 4 0 0 1 4 4v1H64z" fill="#4DC3EA"/><path d="M64.01 46V10H90c-13.996.214-25.336 11.422-25.714 25.414L64 45.987l.01.013zM58 81V50l-1.167 29.728a4 4 0 0 1-3.997 3.843H37.21a4 4 0 0 1-3.997-3.837L32 50v31a4 4 0 0 0 4 4h18a4 4 0 0 0 4-4zM90 81V50l-1.167 29.728a4 4 0 0 1-3.997 3.843H69.21a4 4 0 0 1-3.997-3.837L64 50v31a4 4 0 0 0 4 4h18a4 4 0 0 0 4-4zM26 81V60l-1.11 20.2a4 4 0 0 1-3.994 3.78H5.089a4 4 0 0 1-3.99-3.711L0 65.102V81a4 4 0 0 0 4 4h18a4 4 0 0 0 4-4z" fill="#009FD9"/></svg>