<?xml version="1.0" encoding="UTF-8"?><svg id="Layer_1" xmlns="http://www.w3.org/2000/svg" viewBox="0 0 90 90"><defs><style>.cls-1{fill:#95704d;}.cls-2{fill:#876247;}.cls-3{fill:#e7c7a2;}.cls-4{fill:#bebdb9;}.cls-5{fill:#e7e6e5;}.cls-6{fill:#fff;opacity:.1;}.cls-7{fill:#7a5441;}.cls-8{opacity:.15;}.cls-9{fill:#dad8d6;}</style></defs><g><path class="cls-9" d="M85,52.5v-15l-11.68-2.34c-.38-1.11-.83-2.18-1.34-3.23l6.62-9.91-10.61-10.61-9.92,6.61c-1.04-.51-2.12-.96-3.22-1.34l-2.34-11.68h-15l-2.34,11.68c-1.11,.38-2.18,.83-3.22,1.34l-9.92-6.61-10.61,10.61,6.62,9.91c-.51,1.04-.96,2.12-1.34,3.23l-11.68,2.34v15l11.68,2.34c.38,1.11,.83,2.18,1.34,3.23l-6.62,9.91,10.61,10.61,9.92-6.62c1.04,.51,2.12,.96,3.22,1.34l2.34,11.68h15l2.34-11.68c1.11-.38,2.18-.83,3.23-1.34l9.91,6.62,10.61-10.61-6.62-9.91c.51-1.04,.96-2.12,1.34-3.23l11.68-2.34Zm-39.48,2.49c-5.93,.3-10.81-4.57-10.51-10.51,.26-5.08,4.39-9.21,9.47-9.47,5.93-.3,10.81,4.58,10.51,10.51-.26,5.08-4.39,9.21-9.47,9.46Z"/><path class="cls-4" d="M45,27.5c9.96,0,18.01,8.37,17.47,18.45-.47,8.87-7.65,16.05-16.52,16.52-10.08,.54-18.45-7.51-18.45-17.47s7.85-17.5,17.5-17.5m0-2.5c-11.14,0-20.15,9.11-20,20.29,.15,10.77,8.94,19.56,19.71,19.71,11.17,.16,20.29-8.86,20.29-20s-8.96-20-20-20h0Z"/><path class="cls-5" d="M45.82,27.52c-10.3-.47-18.78,8.01-18.3,18.3,.41,8.98,7.68,16.25,16.66,16.66,10.3,.47,18.78-8.01,18.3-18.3-.41-8.98-7.68-16.25-16.66-16.66Zm-.36,24.61c-4.31,.27-7.86-3.28-7.59-7.59,.22-3.55,3.11-6.44,6.66-6.66,4.31-.27,7.86,3.28,7.59,7.59-.23,3.55-3.11,6.44-6.66,6.66Z"/><path class="cls-5" d="M69.45,31.76l6.31-9.46-8.06-8.06-9.47,6.31-1.13-.55c-.98-.48-1.98-.89-2.98-1.24l-1.19-.41-2.23-11.15h-11.4l-2.23,11.15-1.19,.41c-1,.35-2,.76-2.98,1.24l-1.13,.55-9.47-6.31-8.06,8.06,6.31,9.46-.55,1.13c-.48,.98-.9,1.99-1.24,2.99l-.41,1.19-9.35,1.87c3.29,4.58,7.43,8.5,12.19,11.54-.4-1.76-.62-3.6-.62-5.48,0-13.49,10.94-24.42,24.42-24.42s24.42,10.94,24.42,24.42c0,1.9-.22,3.76-.63,5.54,5.81-8.92,.65-18.77,.65-18.77Z"/></g><g><path class="cls-7" d="M45,5H6.29c-.72,0-1.29,.58-1.29,1.29V83.71c0,.72,.58,1.29,1.29,1.29H45V5Z"/><path class="cls-2" d="M45,9.78H10.92c-.63,0-1.14,.51-1.14,1.14V79.08c0,.63,.51,1.14,1.14,1.14H45V9.78Z"/><g><path class="cls-1" d="M12.51,11.32h15.65V28.16H11.32V12.51c0-.66,.54-1.19,1.19-1.19Z"/><rect class="cls-1" x="28.16" y="28.16" width="16.84" height="16.84"/><rect class="cls-1" x="11.32" y="45" width="16.84" height="16.84"/><rect class="cls-1" x="28.16" y="61.84" width="16.84" height="16.84"/></g><g><rect class="cls-3" x="28.16" y="11.32" width="16.84" height="16.84"/><rect class="cls-3" x="11.32" y="28.16" width="16.84" height="16.84"/><rect class="cls-3" x="28.16" y="45" width="16.84" height="16.84"/><path class="cls-3" d="M11.32,61.84H28.16v16.84H12.51c-.66,0-1.19-.54-1.19-1.19v-15.65h0Z"/></g><path class="cls-6" d="M45,14.22H14.93c-.39,0-.71,.32-.71,.71V57.43c0,.25,18.01-17.67,30.78-30.51V14.22Z"/></g><rect class="cls-8" x="45" y="5" width="2.9" height="80"/></svg>