<svg width="90" height="90" fill="none" xmlns="http://www.w3.org/2000/svg"><g clip-path="url(#a)"><path fill-rule="evenodd" clip-rule="evenodd" d="M71.54 1.598a5 5 0 1 0-7.329 6.804c16.183 17.427 16.183 45.823 0 63.25a5 5 0 0 0 7.328 6.804c19.746-21.263 19.746-55.595 0-76.858zM57.3 18.888a5 5 0 1 0-7.376 6.752c7.233 7.9 7.233 20.874 0 28.774a5 5 0 0 0 7.376 6.753c10.731-11.722 10.731-30.559 0-42.28z" fill="#9881F2"/><path fill-rule="evenodd" clip-rule="evenodd" d="M64.473 1.336a5 5 0 0 1 6.582-.195 5 5 0 0 0-4.844 8.262c16.183 17.426 16.183 45.822 0 63.248a5 5 0 0 0 .486 7.263 5 5 0 0 1-2.486-8.263c16.183-17.426 16.183-45.822 0-63.249a5 5 0 0 1 .262-7.066zm-14.238 17.24a5.001 5.001 0 0 1 6.557-.172 5 5 0 0 0-4.868 8.236c7.233 7.9 7.233 20.874 0 28.774a5 5 0 0 0 .51 7.237 5 5 0 0 1-2.51-8.237c7.233-7.9 7.233-20.875 0-28.774a5 5 0 0 1 .311-7.064z" fill="#C9ACFF"/><path d="M49.422 84.222H2.578v-1.088c0-8.157 3.89-11.12 7.935-14.201 4.049-3.084 8.254-6.287 8.876-14.933h-6.206c-.848-1.572-.97-3.325-.97-5.077l6.545-3.99c-2.97-2.357-4.484-6.105-4.484-9.49 0-6.407 5.211-11.605 11.756-11.665 6.485.06 11.696 5.258 11.696 11.666 0 3.384-1.515 7.132-4.484 9.49l6.545 3.989c0 1.752-.121 3.505-.97 5.077h-6.206c.622 8.646 4.828 11.849 8.876 14.933 4.046 3.081 7.935 6.044 7.935 14.201v1.088z" fill="#9881F2"/><path fill-rule="evenodd" clip-rule="evenodd" d="M32.611 54H19.955c.857.897 1.708 1.808 2.56 2.72 6.465 6.925 12.977 13.9 22.759 15.382-1.159-1.168-2.465-2.162-3.787-3.17C37.438 65.85 33.233 62.647 32.61 54zM29.998 24.49c4.099 2.556 7.282 9.924 3.534 15.236-2.81 3.973-8.287 5.207-8.287 5.207h7.997c2.97-2.357 4.484-6.105 4.484-9.49 0-5.029-3.21-9.313-7.728-10.952z" fill="#5E53D9"/><path fill-rule="evenodd" clip-rule="evenodd" d="M2.578 83.134v1.088c2.056-6.795 5.064-8.976 10.137-12.655.37-.268.75-.543 1.142-.83 3.234-2.366 3.888-6.82 4.316-10.813-1.669 4.445-4.706 6.759-7.66 9.009-4.046 3.081-7.935 6.044-7.935 14.201z" fill="#C9ACFF"/><path fill-rule="evenodd" clip-rule="evenodd" d="M19.389 54h19.428c.849-1.572.97-3.325.97-5.077l-6.545-3.99h-1.34l.023.021c.372.333 4.818 4.308.12 7.346h-19.51c.145.584.352 1.153.648 1.7h6.206z" fill="#5E53D9"/><path fill-rule="evenodd" clip-rule="evenodd" d="M12.218 49.466c-.003-.181-.005-.362-.005-.543l6.545-3.99-1.425 4.526-5.115.007zM14.682 38.545a12.257 12.257 0 0 1-.408-3.102c0-6.23 4.93-11.319 11.22-11.649l.156-.001h.143c-4.025.49-10.181 5.204-11.11 14.752z" fill="#C9ACFF"/></g><defs><clipPath id="a"><path fill="#fff" d="M0 0h90v90H0z"/></clipPath></defs></svg>