<svg id="Layer_1" data-name="Layer 1" xmlns="http://www.w3.org/2000/svg" width="88" height="88" viewBox="0 0 88 88"><defs><style>.cls-1{fill:#94bb4a;}.cls-2{fill:#7da543;}.cls-3{fill:#fff;}</style></defs><title>teams_active</title><circle class="cls-1" cx="44" cy="44" r="42"/><path class="cls-2" d="M44,4A40,40,0,1,1,4,44,40,40,0,0,1,44,4m0-4A44,44,0,1,0,88,44,44,44,0,0,0,44,0Z"/><path class="cls-2" d="M40,29l0,6l4,4l33.505,33.505c3.811-4.475,6.749-9.716,8.531-15.469L48,19L40,29z"/><path class="cls-2" d="M35,40 h-6l-10,8l38.036,38.036c5.753-1.782,10.994-4.72,15.469-8.531L39,44L35,40z"/><path class="cls-3" d="M39.1,46.29V41.71h-5V40a1.73,1.73,0,0,0-1.73-1.74H20.74A1.74,1.74,0,0,0,19,40v8a1.74,1.74,0,0,0,1.74,1.74h11.6A1.73,1.73,0,0,0,34.07,48V46.29Z"/><path class="cls-3" d="M48,53.93H46.29V34.07H48a1.73,1.73,0,0,0,1.74-1.73V20.74A1.74,1.74,0,0,0,48,19H40a1.74,1.74,0,0,0-1.74,1.74v11.6A1.73,1.73,0,0,0,40,34.07h1.72V53.93H40a1.73,1.73,0,0,0-1.74,1.73v11.6A1.74,1.74,0,0,0,40,69h8a1.74,1.74,0,0,0,1.74-1.74V55.66A1.73,1.73,0,0,0,48,53.93Z"/><path class="cls-3" d="M67.26,38.25H55.66A1.73,1.73,0,0,0,53.93,40v1.72h-5v4.58h5V48a1.73,1.73,0,0,0,1.73,1.74h11.6A1.74,1.74,0,0,0,69,48V40A1.74,1.74,0,0,0,67.26,38.25Z"/></svg>
