<svg width="90" height="90" fill="none" xmlns="http://www.w3.org/2000/svg"><path d="M15 85a5 5 0 0 0 5 5h50a5 5 0 0 0 5-5V66a5 5 0 0 0-5-5H20a5 5 0 0 0-5 5v19z" fill="#9D6C3E"/><path d="M15 86.658V66a5 5 0 0 1 5-5h45l-43.02 1.596a6 6 0 0 0-5.764 5.601L15 86.657z" fill="#CA9350"/><path d="M61.18 71.5H28.71v8.13h32.47V71.5z" fill="#6A4632"/><path d="M61.18 69.5H28.71v8.13h32.47V69.5z" fill="#F7C631"/><path d="M39.916 37.337v6.124c-.08 5.561-4.595 10.222-10.185 10.222h-.834V61h32.195v-7.317h-.944c-5.62 0-10.178-4.734-10.178-10.354v-5.963l-10.053-.03z" fill="#E3AA24"/><path fill-rule="evenodd" clip-rule="evenodd" d="M49.97 40.66c-1.584.429-3.25.657-4.97.657-1.76 0-3.465-.24-5.083-.688v-3.292l10.053.029v3.294z" fill="#CF8D1B"/><path d="M39.917 43.46c-.08 5.562-4.595 10.223-10.186 10.223h30.417c-10.434 0-17.348-6.586-20.231-10.222z" fill="#F7C631"/><path fill-rule="evenodd" clip-rule="evenodd" d="M72.697 9.78H17.264c.63 6.06 4.418 11.614 11.015 11.708h33.403c6.597-.094 10.385-5.647 11.015-11.707zM61.716 26.61c10.2-.124 15.7-8.464 16.172-17.55.131-2.516-2.052-4.401-4.572-4.401h-56.67c-2.52 0-4.704 1.885-4.573 4.401.472 9.086 5.972 17.426 16.173 17.55h33.47z" fill="#E3AA24"/><path d="M26 1.461c0-.264.19-.486.453-.517C28.233.734 35.15 0 45 0c9.85 0 16.766.734 18.547.944a.514.514 0 0 1 .453.517v17.856c0 10.493-8.507 19-19 19s-19-8.507-19-19V1.461z" fill="#F7C631"/><path fill-rule="evenodd" clip-rule="evenodd" d="M40.605.049v16.317c0 6.882-3.8 12.876-9.417 15.998A18.934 18.934 0 0 1 26 19.317V1.461c0-.264.19-.486.452-.517C27.955.767 33.112.217 40.604.05z" fill="#FCE26A"/><path fill-rule="evenodd" clip-rule="evenodd" d="M55.97.31V17.76a20 20 0 0 1-15.81 19.556l-.762.163c1.77.545 3.652.84 5.601.84 10.494 0 19-8.507 19-19V1.46a.514.514 0 0 0-.452-.517c-1.01-.12-3.669-.406-7.577-.633z" fill="#FAD541"/></svg>