<svg width="90" height="90" viewBox="0 0 90 90" fill="none" xmlns="http://www.w3.org/2000/svg">
<path d="M39.7875 70.9998C37.081 74.2395 34.3649 76.5712 29.9292 76.3801C26.813 76.2703 21.0907 74.239 15.3116 74.239C11.6856 74.2939 8.1728 75.2272 5 76.9841L9.02266 84.9998C10.6657 84.0664 14.6317 82.9135 16.1048 82.9135C22.3371 82.9135 22.3955 84.9998 32.7054 84.9998C39.8774 84.8519 43.3839 79.8498 45 73.6899C46.6161 79.8498 50.1226 84.8519 57.2946 84.9998C67.1547 84.9998 67.6629 82.9135 73.8952 82.9135C75.3683 82.9135 79.3343 84.0664 80.9773 84.9998L85 76.9841C81.8839 75.2272 78.3144 74.2939 74.6884 74.239C68.9094 74.239 63.187 76.3252 60.0708 76.3801C55.6658 76.4772 52.8986 74.344 50.2691 70.9998H50.2125" fill="#E7E6E5"/>
<path d="M23.9143 49.9898C26.5243 47.4698 26.6543 43.5998 32.1943 43.5698C36.4643 43.5498 40.2543 39.6598 42.3843 37.4298L44.4943 34.9898C45.3143 35.9798 47.5843 39.1298 46.5843 42.6398C46.2743 43.7198 45.7943 44.6798 45.1743 45.5998C44.0443 47.2598 42.4343 48.7198 40.5343 50.2498C36.4643 53.5498 29.3343 59.2498 28.5643 67.0598L28.2843 71H66.9543C66.9543 62.4833 72.1543 54.9402 72.1543 46.2798C72.1543 23.1998 56.5743 13.0598 42.6443 12.1198L35.5243 5.00977C34.5143 5.00977 33.4743 6.07977 33.1943 7.25977L32.3843 11.1398C31.5643 13.1498 30.2043 14.5098 28.1043 16.2498C26.0043 17.9898 25.4643 19.6298 24.9943 20.8198C23.3343 25.0498 23.2043 27.2898 20.3243 31.4798L13.8743 40.5498C12.2143 42.5998 12.4343 45.4098 14.2143 46.9098C16.5743 48.9098 23.3443 50.5798 23.9343 49.9998L23.9143 49.9898Z" fill="#E7E6E5"/>
<g opacity="0.5">
<path d="M67.0005 71C67.0005 62.5 72.0332 54.7292 72.0332 46.2798C72.0332 23.5197 56.8821 13.3434 43.1033 12.1642C47.4042 13.0075 65.6514 17.7647 65.6514 37.7827C65.6514 47.1554 61.8394 53.2095 58.2828 58.8579C56.0989 62.3263 54.0112 67.1631 52.9617 71H67.0005Z" fill="#BEBDB9"/>
<path d="M42.2472 12.0462C42.0864 12.02 42.0009 12.0088 42.0009 12.0088C42.0693 12.0073 42.1376 12.006 42.2058 12.0049L42.2472 12.0462Z" fill="#BEBDB9"/>
</g>
<path d="M13.8679 40.5299L20.3179 31.4599C23.1979 27.2699 23.3279 25.0299 24.9879 20.7999C25.4479 19.6099 25.9879 17.9699 28.0979 16.2299C30.1979 14.4899 31.5579 13.1299 32.3779 11.1199L33.1879 7.23986C33.3979 6.35986 34.0279 5.53986 34.7479 5.17986C34.9079 5.14986 35.0579 5.10986 35.2279 5.10986C35.2279 5.10986 38.2279 12.2299 33.7979 14.9799C25.2879 20.2699 26.8379 26.7499 24.3679 30.0399C23.1479 31.6699 14.5279 42.3099 12.8579 44.3699C12.6379 43.0899 12.9079 41.6899 13.8579 40.5199L13.8679 40.5299Z" fill="#F1F1F1"/>
<path d="M33.7246 43.39C33.2246 43.5 32.7146 43.56 32.1946 43.56C26.6546 43.59 26.5246 47.46 23.9146 49.98C23.7746 50.11 23.2946 50.12 22.6346 50.04C23.1746 49.12 24.7046 47.44 25.8546 43.97C27.7346 38.33 29.0046 40.98 33.7246 43.4V43.39Z" fill="#BEBDB9"/>
<path d="M47.8439 29.2098C48.8439 27.2898 49.0439 30.8898 49.0739 32.5698C49.0939 34.1098 48.1139 38.4098 46.6439 42.2698C47.3939 38.9098 45.2839 35.9398 44.4939 34.9898L44.3139 35.1898C44.3439 35.0898 44.3639 35.0198 44.3639 35.0198C44.3639 35.0198 46.8439 31.1298 47.8439 29.2098Z" fill="#BEBDB9"/>
<path fill-rule="evenodd" clip-rule="evenodd" d="M44.5485 75.2239C43.4221 73.7874 41.0121 73.0354 38.3711 72.5932C38.8493 72.0949 39.3183 71.5611 39.787 71H50.212H50.2686C50.7714 71.6395 51.2793 72.2347 51.8027 72.7785C48.9181 73.2354 46.4762 73.9607 45.4421 75.1982C45.2808 74.7049 45.1337 74.2015 44.9995 73.6902C44.863 74.2104 44.713 74.7224 44.5485 75.2239Z" fill="#8B8987"/>
<path fill-rule="evenodd" clip-rule="evenodd" d="M18.49 83.034C18.3296 82.9662 18.1698 82.8984 18.0106 82.8308C15.7933 81.8903 13.6945 80.9999 12.0009 80.9999C10.36 80.9999 8.96557 81.6267 7.74414 82.4506L9.02356 85C10.6666 84.0667 14.6326 82.9137 16.1057 82.9137C17.0148 82.9137 17.7926 82.9581 18.49 83.034ZM19.039 74.4856C20.5198 74.9087 22.0312 75.5498 23.4912 76.1692C25.7085 77.1097 27.8073 78.0001 29.5009 78.0001C32.2993 78.0001 34.3808 76.1771 36.11 74.6627L36.11 74.6627C36.5991 74.2344 37.0599 73.8307 37.5009 73.5L37.4434 73.5013C35.4023 75.3598 33.1073 76.5172 29.9301 76.3804C28.6794 76.3363 27.009 75.9827 25.0835 75.5752C23.2521 75.1875 21.19 74.751 19.039 74.4856Z" fill="#BEBDB9"/>
<path fill-rule="evenodd" clip-rule="evenodd" d="M71.5018 83.0343C71.6624 82.9664 71.8225 82.8985 71.982 82.8308C74.1992 81.8903 76.298 80.9999 77.9917 80.9999C79.6333 80.9999 81.0282 81.6273 82.25 82.4517L80.9711 85C79.3281 84.0667 75.3621 82.9137 73.889 82.9137C72.9786 82.9137 72.1999 82.9582 71.5018 83.0343ZM70.9519 74.486C69.4716 74.9091 67.9608 75.55 66.5013 76.1692C64.2841 77.1097 62.1853 78.0001 60.4917 78.0001C57.6933 78.0001 55.6118 76.1771 53.8826 74.6627L53.8825 74.6627C53.3935 74.2344 52.9326 73.8307 52.4917 73.5L52.5513 73.5014C54.5924 75.3598 56.8874 76.5172 60.0646 76.3804C61.3153 76.3363 62.9857 75.9827 64.9112 75.5752C66.7415 75.1877 68.8023 74.7515 70.9519 74.486Z" fill="#BEBDB9"/>
</svg>
