<svg width="90" height="90" viewBox="0 0 90 90" fill="none" xmlns="http://www.w3.org/2000/svg">
<path d="M44.9996 84.9999C66.1091 84.9999 83.2218 68.2852 83.2218 47.6666C83.2218 27.048 66.1091 10.3333 44.9996 10.3333C23.89 10.3333 6.77734 27.048 6.77734 47.6666C6.77734 68.2852 23.89 84.9999 44.9996 84.9999Z" fill="#99580E"/>
<path d="M44.9996 81.4444C66.1091 81.4444 83.2218 64.3318 83.2218 43.2222C83.2218 22.1127 66.1091 5 44.9996 5C23.89 5 6.77734 22.1127 6.77734 43.2222C6.77734 64.3318 23.89 81.4444 44.9996 81.4444Z" fill="#E3AA24"/>
<mask id="mask0_8839_4470" style="mask-type:alpha" maskUnits="userSpaceOnUse" x="6" y="5" width="78" height="77">
<path d="M44.9996 81.4444C66.1091 81.4444 83.2218 64.3318 83.2218 43.2222C83.2218 22.1127 66.1091 5 44.9996 5C23.89 5 6.77734 22.1127 6.77734 43.2222C6.77734 64.3318 23.89 81.4444 44.9996 81.4444Z" fill="#FAD541"/>
</mask>
<g mask="url(#mask0_8839_4470)">
<path d="M-0.630859 81.2667V5H43.0432C22.5419 10.1253 7.17589 27.1399 4.15918 48.0557L-0.630859 81.2667Z" fill="#F7C631"/>
<path d="M88.6133 7.60735V83.874H44.9392C65.4405 78.7487 80.8065 61.7342 83.8232 40.8183L88.6133 7.60735Z" fill="#F7C631"/>
<path opacity="0.2" d="M88.6133 -35.4446V83.874H-15.4457L12.2343 81.4854C51.1578 78.1266 81.9622 47.1453 85.0983 8.20328L88.6133 -35.4446Z" fill="#F7C631"/>
</g>
<path d="M30.7123 70.0109C30.4686 70.4351 29.927 70.5839 29.5099 70.3283C21.1922 65.2305 15.666 55.5704 15.666 45.1489V44.1116C15.666 43.6207 16.064 43.2227 16.5549 43.2227H44.9958V45.1489L30.7123 70.0109ZM30.2716 18.2505C30.2716 17.9334 30.4402 17.6392 30.7176 17.4855C39.4737 12.6357 50.8195 12.737 59.259 17.4771C59.5408 17.6354 59.7076 17.9386 59.6991 18.2617L59.6719 19.2922C59.668 19.4391 59.6278 19.5828 59.5548 19.7103L44.9958 45.1489L30.3897 19.7216C30.3124 19.5869 30.2716 19.4343 30.2716 19.2789V18.2505ZM44.9958 45.1489V43.2227H73.4372C73.9307 43.2227 74.3297 43.6247 74.3261 44.1181L74.3185 45.1489C74.6536 55.2408 69.0213 65.0059 60.4778 70.3186C60.0599 70.5786 59.5137 70.431 59.2686 70.0042L44.9958 45.1489Z" fill="black"/>
<path d="M30.7114 68.2299C30.4684 68.6555 29.9258 68.8054 29.5081 68.549C21.4283 63.5881 15.9831 54.1979 15.6794 44.1117C15.6646 43.621 16.064 43.2227 16.5549 43.2227H44.9923L30.7114 68.2299ZM30.7158 18.5109C30.4704 18.0861 30.6149 17.5415 31.0473 17.3098C39.6484 12.7011 50.6468 12.797 58.9458 17.3079C59.3745 17.541 59.5161 18.0827 59.2719 18.5053L44.9923 43.2227L30.7158 18.5109ZM44.9923 43.2227H73.4586C73.9381 43.2227 74.3328 43.6031 74.3327 44.0825C74.3311 53.8732 68.7793 63.3697 60.4795 68.5394C60.061 68.8001 59.5139 68.6516 59.2694 68.2234L44.9923 43.2227Z" fill="#262421"/>
<path opacity="0.2" d="M17.9724 16.195C3.04567 31.1217 3.04567 55.3227 17.9724 70.2494L72.0268 16.195C57.1001 1.26832 32.8991 1.26832 17.9724 16.195Z" fill="#FAD541"/>
</svg>
