<svg width="90" height="90" viewBox="0 0 90 90" fill="none" xmlns="http://www.w3.org/2000/svg">
<g clip-path="url(#clip0_8710_7767)">
<path fill-rule="evenodd" clip-rule="evenodd" d="M29.998 9.99951H35V21.4484C20.5416 25.7505 9.99805 39.1438 9.99805 54.9996C9.99805 74.3295 25.6681 89.9996 44.998 89.9996C64.328 89.9996 79.998 74.3295 79.998 54.9996C79.998 39.1452 69.4564 25.7529 55 21.4496V9.99951H59.998L60.365 8.89854C61.3292 6.00612 60.2381 2.82624 57.7013 1.13502C56.5907 0.394612 55.2858 -0.000488281 53.951 -0.000488281H36.0451C34.7103 -0.000488281 33.4054 0.394612 32.2948 1.13502C29.758 2.82624 28.6669 6.00612 29.6311 8.89854L29.998 9.99951Z" fill="#45753C"/>
<path opacity="0.5" fill-rule="evenodd" clip-rule="evenodd" d="M45.09 89.9996C64.3777 89.95 79.998 74.299 79.998 54.9997C79.998 52.0829 79.6413 49.2494 78.9689 46.5406C67.9424 42.8095 55.9633 42.9297 44.998 46.901C33.9802 50.8913 21.9388 50.9935 10.8686 47.2075C10.2989 49.7133 9.99805 52.3214 9.99805 54.9997C9.99805 74.299 25.6184 89.95 44.9061 89.9996H45.09Z" fill="#5D9948"/>
<path fill-rule="evenodd" clip-rule="evenodd" d="M70.2175 65.7334H47.509C48.4103 66.6564 49.1435 67.8975 49.5957 69.6871L24.4187 76.8406C23.3337 72.5468 25.1381 70.1302 26.9822 67.6606C28.7586 65.2814 30.5718 62.853 29.8738 58.6499L29.6319 57.1585L26.1071 58.16C25.4826 57.5574 25.0792 56.762 24.8647 55.9129L28.4059 52.3067C25.9916 51.5625 24.6506 49.9935 24.1602 48.0527C23.348 44.8383 25.3955 41.4614 28.7315 40.5136C32.0674 39.5658 35.433 41.4046 36.2452 44.619C36.7663 46.6811 36.457 48.394 34.5589 50.4934L39.3415 51.7997C39.556 52.6487 39.5817 53.5515 39.325 54.4044L35.8003 55.4059L36.294 56.8257C37.6714 60.8358 40.3867 61.9775 43.047 63.0961C43.4372 63.2601 43.8261 63.4237 44.2095 63.5957C44.8382 60.6554 46.773 59.1468 48.7426 57.611C51.0528 55.8097 53.4108 53.971 53.7646 49.741L53.8957 48.2418H50.225C49.7661 47.4921 49.5695 46.6175 49.5695 45.743L53.8957 43.1817C51.536 41.6824 50.8149 40.1206 50.8149 37.9966C50.8149 34.6857 53.6335 31.9995 57.1077 31.9995C60.5818 31.9995 63.4004 34.6857 63.4004 37.9966C63.4004 39.9957 62.4827 41.8698 60.3196 43.2441L64.6458 45.743C64.6458 46.6175 64.4492 47.4921 63.9903 48.2418H60.3196L60.4507 49.741C60.8045 53.971 63.1625 55.8097 65.4727 57.611C67.8708 59.4809 70.2175 61.3107 70.2175 65.7334Z" fill="#B2E068"/>
<path opacity="0.33" fill-rule="evenodd" clip-rule="evenodd" d="M10.0508 56.9511C20.3355 66.5077 35.8022 67.8587 47.59 60.2215L48.8863 59.3817C57.4602 53.8268 68.1405 52.6071 77.746 56.0859L79.9475 56.8833C78.9691 75.3376 63.6955 90 44.9973 90C26.3221 90 11.063 75.3735 10.0508 56.9511Z" fill="#5D9948"/>
<path opacity="0.3" fill-rule="evenodd" clip-rule="evenodd" d="M74.9011 73.1989C68.7562 83.2735 57.6631 89.9996 44.9989 89.9996C36.5678 89.9996 28.833 87.0185 22.791 82.0528C31.0182 84.3119 40.0565 83.1027 47.5917 78.2208L48.888 77.3809C56.6232 72.3694 66.0729 70.8864 74.9011 73.1989Z" fill="#5D9948"/>
<circle cx="31.9361" cy="32.8104" r="1.28571" fill="#B2E068"/>
<circle cx="39.5421" cy="36.6132" r="2.57143" fill="#B2E068"/>
<circle cx="67.115" cy="52.5598" r="1.89235" fill="#B2E068"/>
<circle cx="46.4353" cy="76.9341" r="1.89235" fill="#B2E068"/>
<circle cx="57.6691" cy="73.6826" r="3.60664" fill="#B2E068"/>
<path opacity="0.3" fill-rule="evenodd" clip-rule="evenodd" d="M36.4996 83.9995C59.9717 83.9995 78.9996 67.434 78.9996 46.9995C78.9996 46.8861 78.999 46.7728 78.9978 46.6597C79.6512 49.3325 79.9976 52.1256 79.9976 54.9997C79.9976 74.3297 64.3276 89.9997 44.9976 89.9997C36.548 89.9997 28.7978 87.0055 22.75 82.0203C27.0627 83.3033 31.6877 83.9995 36.4996 83.9995Z" fill="#162921"/>
<path opacity="0.3" d="M35 9.99976H55V13.714C48.5487 11.3178 41.4513 11.3178 35 13.714V9.99976Z" fill="#162921"/>
<path opacity="0.3" d="M35 9.99976H55V21.4998C48.4344 19.8583 41.5656 19.8583 35 21.4998V9.99976Z" fill="#162921"/>
</g>
<defs>
<clipPath id="clip0_8710_7767">
<rect width="90" height="90" fill="white"/>
</clipPath>
</defs>
</svg>
