<svg width="90" height="90" viewBox="0 0 90 90" fill="none" xmlns="http://www.w3.org/2000/svg">
<path fill-rule="evenodd" clip-rule="evenodd" d="M36.1232 5.05957C44.8593 5.05957 51.9776 12.1779 51.9776 20.9949C51.9776 25.6056 50.0362 29.8118 46.8815 32.7239C49.47 35.2315 52.6247 36.3639 55.6985 36.3639C57.7208 36.3639 59.9048 35.8786 62.0888 34.827C66.5378 32.5621 68.3982 27.3043 71.472 27.3043C77.1343 27.3043 79.6419 41.5409 79.6419 46.2325C79.6419 54.9686 75.3547 65.0798 64.3537 70.1759C72.1192 71.7936 73.4134 74.7057 73.4134 77.5368C73.4134 84.0889 72.6045 84.9787 69.9351 84.9787H21.8866C20.0261 84.9787 19.1363 84.0889 19.1363 77.5368C19.1363 71.6319 25.8502 70.095 30.9463 69.6096C21.4821 65.1607 15.1727 56.9908 15.1727 47.6885C15.1727 43.5631 16.3861 39.6804 18.5701 36.283C19.9452 34.1799 21.563 32.2385 23.5044 30.5399L22.5337 29.2456C21.3204 29.6501 19.4599 30.1354 17.923 30.1354C16.5479 30.1354 15.4154 29.731 15.4154 28.5985C15.4154 27.2234 16.9523 25.282 17.923 24.3113C13.9594 22.6127 11.0474 19.0535 11.0474 17.0313C11.0474 15.9797 11.7754 15.6561 12.746 15.6561C14.1212 15.6561 15.9008 16.7886 17.2759 16.7886C19.379 16.7886 21.2395 15.3326 21.2395 15.3326C23.6662 7.89071 29.3285 5.05957 36.1232 5.05957Z" fill="#F8C42C"/>
<path fill-rule="evenodd" clip-rule="evenodd" d="M64.3538 70.1756C75.3549 65.0795 79.642 54.9683 79.642 46.2322C76.6491 52.7843 70.7441 61.3586 61.3609 64.1897C64.1112 62.0866 68.7219 52.946 65.5672 52.6225C63.3832 56.1816 56.1031 55.6963 51.8968 55.1301C52.9484 56.3434 56.0222 57.1523 59.096 57.9612C60.3902 58.2848 60.6329 58.851 60.6329 59.6599C60.6329 63.4617 48.9039 64.5942 45.7492 64.5942C33.0495 64.5942 28.6006 58.2039 30.2184 48.4162C28.8432 53.8358 29.733 59.579 32.4833 63.219C24.637 60.2261 18.4084 54.0785 15.1729 47.6882C15.1729 56.9905 21.4823 65.1604 30.9464 69.6093C40.4105 68.5578 54.8088 68.6386 64.3538 70.1756Z" fill="#D9A80A"/>
<path fill-rule="evenodd" clip-rule="evenodd" d="M15.4155 28.5982C16.7098 26.6568 19.7027 25.039 21.3205 25.5244L17.9231 24.311C16.9524 25.2817 15.4155 27.2231 15.4155 28.5982Z" fill="#D9A80A"/>
<path fill-rule="evenodd" clip-rule="evenodd" d="M18.5705 36.2828C21.4016 33.1281 23.9901 31.9148 25.4461 31.2677C27.0639 30.5397 27.3874 29.6499 27.3874 28.5983C27.3874 26.657 26.0932 23.9876 24.2327 22.6934C26.3359 25.2818 22.3723 28.9219 17.9233 30.1352C19.4602 30.1352 21.3207 29.6499 22.5341 29.2454L23.5047 30.5397C21.5634 32.2384 19.9456 34.1797 18.5705 36.2828Z" fill="#D9A80A"/>
<path fill-rule="evenodd" clip-rule="evenodd" d="M42.271 33.6943C47.0435 39.5993 56.3458 40.4891 62.089 34.8268C59.905 35.8784 57.7209 36.3637 55.6987 36.3637C52.6249 36.3637 49.4702 35.2312 46.8817 32.7236C50.0364 29.8116 51.9778 25.6053 51.9778 20.9946C49.7937 28.8409 45.911 31.753 42.271 33.6943Z" fill="#D9A80A"/>
<path fill-rule="evenodd" clip-rule="evenodd" d="M63.3832 53.3504C64.8393 53.3504 65.4055 52.6224 65.4055 52.6224C59.4196 52.6224 54.9707 39.3564 42.271 39.3564C36.6087 39.3564 31.8362 43.32 30.2993 48.3352C33.0496 44.3716 37.0132 42.5111 41.2194 42.5111C52.544 42.5111 56.6694 53.3504 63.3832 53.3504Z" fill="#FFD13B"/>
<path fill-rule="evenodd" clip-rule="evenodd" d="M19.1362 77.5365C29.1666 72.5213 63.3829 72.5213 73.4133 77.5365C73.4133 74.7054 72.119 71.7933 64.3536 70.1755C54.8086 68.6386 40.4102 68.5577 30.9461 69.6093C25.8501 70.0946 19.1362 71.6315 19.1362 77.5365Z" fill="#FFD13B"/>
<path fill-rule="evenodd" clip-rule="evenodd" d="M12.4225 20.105C12.0989 16.5459 12.9887 17.8401 16.5479 17.8401C18.3274 17.8401 20.1879 17.3548 21.2395 15.3325C21.2395 15.3325 19.379 16.7885 17.2759 16.7885C15.9008 16.7885 14.1212 15.6561 12.746 15.6561C11.7754 15.6561 11.0474 15.9796 11.0474 17.0312C11.0474 17.8401 11.4518 18.8108 12.4225 20.105Z" fill="#FFD13B"/>
<path fill-rule="evenodd" clip-rule="evenodd" d="M30.8657 18.8107C31.9172 18.8107 32.7261 17.6783 32.7261 16.384C32.7261 15.0089 31.9172 13.8765 30.8657 13.8765C29.8141 13.8765 28.9243 15.0089 28.9243 16.384C28.9243 17.6783 29.8141 18.8107 30.8657 18.8107Z" fill="black"/>
<path fill-rule="evenodd" clip-rule="evenodd" d="M21.078 18.5682C25.1225 9.67029 33.6968 6.03025 43.4036 6.83915C41.3005 5.70669 38.712 5.05957 36.1235 5.05957C29.3288 5.05957 23.6665 7.89071 21.2398 15.3326C21.2398 15.5752 20.9971 17.1121 21.078 18.5682Z" fill="#FFD13B"/>
</svg>
