<svg xmlns="http://www.w3.org/2000/svg" viewBox="0 0 90 90"><defs><style>.a{fill:#a88230;}.b{fill:none;}.c{fill:#b54040;}.d{fill:#e6b240;}.e{fill:#1d1d1b;}.e,.f{opacity:0.2;}</style></defs><path class="a" d="M53.67,24.74c.42,0,.81.05,1.18,0a7.21,7.21,0,0,0,1.4-.14l.19-.05c.29-.1.59-.21.87-.33h0l.25-.12.24-.1q.28-.13.57-.3c-.17-2.39.33-6.43,1.58-8.63-.89,1.2-4,1.26-4.44,3.26C55.15,20,54.93,23,53.67,24.74Z"/><path class="a" d="M36.33,24.74c-.42,0-.81.05-1.18,0a7.21,7.21,0,0,1-1.4-.14l-.19-.05c-.29-.1-.59-.21-.87-.33h0l-.25-.12-.24-.1q-.28-.13-.57-.3c.17-2.39-.33-6.43-1.58-8.63.89,1.2,4,1.26,4.44,3.26C34.85,20,35.07,23,36.33,24.74Z"/><rect class="b" width="90" height="90"/><path class="c" d="M82.8,86.5H7.2a1.91,1.91,0,0,1-1.75-2.69c3.62-8.11,14.8-32.42,22.91-42.36,8.77-10.72,15.41-10.09,16.49-9.9a.76.76,0,0,0,.3,0c.9-.16,5.64-.62,12.25,5.39a42.16,42.16,0,0,1,4.24,4.51c8.11,9.94,19.29,34.25,22.91,42.36A1.91,1.91,0,0,1,82.8,86.5Z"/><path class="d" d="M69.89,11.07a76.25,76.25,0,0,0-7.35,25.61,1.11,1.11,0,0,1-1.1,1H58.28a80.84,80.84,0,0,0-12.77-1H45a81.64,81.64,0,0,0-13.31,1H28.56a1.11,1.11,0,0,1-1.1-1,76.25,76.25,0,0,0-7.35-25.61c1.14,1.43,4.21.89,5.29,4.09,1.5,4.44,3.48,6.75,5.83,8.06q.29.16.57.3l.24.1.25.12h0c.28.12.58.23.87.33l.19.05a7.21,7.21,0,0,0,1.4.14c.37,0,.76,0,1.18,0h.14a6.26,6.26,0,0,0,4.05-1.78c2.73-3.05,1-5.65,1.3-11C41.73,6.9,43.74,7.86,45,3.5c1.26,4.36,3.27,3.4,3.56,8,.35,5.33-1.42,7.93,1.31,11,2,2.25,6.14,1.91,7,1.64C60,23,62.71,20.79,64.6,15.16,65.68,12,68.75,12.5,69.89,11.07Z"/><path class="e" d="M69.89,11.07a76.25,76.25,0,0,0-7.35,25.61,1.11,1.11,0,0,1-1.1,1H58.28l-.11,0a79.41,79.41,0,0,0-10.37-1l-.93,0-1.37,0a16,16,0,0,1-2-7.27c0-4.35,1.84-7.95,2.21-12.47S45,3.5,45,3.5c1.26,4.36,3.27,3.4,3.56,8,.35,5.33-1.42,7.93,1.31,11,2,2.25,6.14,1.91,7,1.64C60,23,62.71,20.79,64.6,15.16,65.68,12,68.75,12.5,69.89,11.07Z"/><path class="f" d="M82.8,86.5H21.27C32,83.44,42.34,80.43,46.85,64.06c2.76-10,3.94-19.27-1.34-27.41v0l1.37,0,.93,0a79.41,79.41,0,0,1,10.37,1,43.12,43.12,0,0,1,3.47,3.79c8.11,9.94,19.29,34.25,22.91,42.36A1.91,1.91,0,0,1,82.8,86.5Z"/></svg>