<?xml version="1.0" encoding="utf-8"?>
<!-- Generator: Adobe Illustrator 19.1.1, SVG Export Plug-In . SVG Version: 6.00 Build 0)  -->
<svg version="1.1" id="Layer_1" xmlns="http://www.w3.org/2000/svg" xmlns:xlink="http://www.w3.org/1999/xlink" x="0px" y="0px"
	 width="90px" height="90px" viewBox="0 0 90 90" style="enable-background:new 0 0 90 90;" xml:space="preserve">
<style type="text/css">
	.st0{fill:none;}
	.st1{fill:#EBE8CE;}
	.st2{fill:#FFFBE1;}
</style>
<g>
	<rect class="st0" width="90" height="90"/>
	<g id="arrows">
		<g>
			<path class="st1" d="M82.5,8.8v22c0,1.2-1.4,1.8-2.3,0.9L73,24.5L58.9,38.6c-2.1,2.1-5.4,2.1-7.5,0c-2.1-2.1-2.1-5.4,0-7.5
				L65.5,17l-7.3-7.3c-0.8-0.8-0.2-2.3,0.9-2.3h22C81.9,7.5,82.5,8.1,82.5,8.8z"/>
			<path class="st2" d="M81.2,7.5h-22c-1.2,0-1.8,1.4-0.9,2.3l7.3,7.3L51.4,31.1c-2.1,2.1-2.1,5.4,0,7.5h0L82.1,7.9
				C81.9,7.6,81.5,7.5,81.2,7.5z"/>
		</g>
		<g>
			<path class="st1" d="M8.8,82.5h22c1.2,0,1.8-1.4,0.9-2.3L24.5,73l14.1-14.1c2.1-2.1,2.1-5.4,0-7.5c-2.1-2.1-5.4-2.1-7.5,0
				L17,65.5l-7.3-7.3c-0.8-0.8-2.3-0.2-2.3,0.9v22C7.5,81.9,8.1,82.5,8.8,82.5z"/>
			<path class="st2" d="M31.1,51.4L17,65.5l-7.3-7.3c-0.8-0.8-2.3-0.2-2.3,0.9v22c0,0.4,0.1,0.7,0.4,0.9l30.8-30.8
				C36.6,49.3,33.2,49.3,31.1,51.4z"/>
		</g>
		<g>
			<path class="st1" d="M81.2,82.5h-22c-1.2,0-1.8-1.4-0.9-2.3l7.3-7.3L51.4,58.9c-2.1-2.1-2.1-5.4,0-7.5c2.1-2.1,5.4-2.1,7.5,0
				L73,65.5l7.3-7.3c0.8-0.8,2.3-0.2,2.3,0.9v22C82.5,81.9,81.9,82.5,81.2,82.5z"/>
			<path class="st2" d="M82.5,81.2v-22c0-1.2-1.4-1.8-2.3-0.9L73,65.5L58.9,51.4c-2.1-2.1-5.4-2.1-7.5,0l30.8,30.8
				C82.4,81.9,82.5,81.5,82.5,81.2z"/>
		</g>
		<g>
			<path class="st1" d="M7.5,8.8v22c0,1.2,1.4,1.8,2.3,0.9l7.3-7.3l14.1,14.1c2.1,2.1,5.4,2.1,7.5,0c2.1-2.1,2.1-5.4,0-7.5L24.5,17
				l7.3-7.3c0.8-0.8,0.2-2.3-0.9-2.3h-22C8.1,7.5,7.5,8.1,7.5,8.8z"/>
			<path class="st2" d="M38.6,38.6c2.1-2.1,2.1-5.4,0-7.5L24.5,17l7.3-7.3c0.8-0.8,0.2-2.3-0.9-2.3h-22c-0.4,0-0.7,0.1-0.9,0.4
				L38.6,38.6L38.6,38.6z"/>
		</g>
	</g>
</g>
</svg>
